<svg version="1.1" id="Layer_1" xmlns="http://www.w3.org/2000/svg" xmlns:xlink="http://www.w3.org/1999/xlink" x="0px" y="0px"
	 width="100%" viewBox="0 0 1024 1024" enable-background="new 0 0 1024 1024" xml:space="preserve">
<path d="M0 0 C0.70898438 0.65484375 1.41796875 1.3096875 2.1484375 1.984375 C4.15784944 3.82263829 6.19638838 5.60107105 8.26171875 7.375 C13.4083142 11.86836448 18.2313717 16.67235485 23.0625 21.5 C23.95259766 22.37785156 24.84269531 23.25570312 25.75976562 24.16015625 C31.82191902 30.20902516 37.28786243 36.55963939 42.625 43.25 C44.03831317 44.94030961 45.45458052 46.62815764 46.875 48.3125 C58.38966512 62.44595181 68.36816579 77.56154557 77.625 93.25 C78.10710938 94.06694336 78.58921875 94.88388672 79.0859375 95.72558594 C125.49305127 175.23943211 130.87260477 269.34596229 108.625 357.25 C108.295 358.24 107.965 359.23 107.625 360.25 C109.14867187 360.37955078 109.14867187 360.37955078 110.703125 360.51171875 C125.34134058 361.92947225 137.92880463 365.95843208 147.66015625 377.70703125 C149.43737711 380.1634448 151.05747961 382.65562802 152.625 385.25 C153.02460937 385.87261719 153.42421875 386.49523437 153.8359375 387.13671875 C160.83432331 399.26550017 160.87661183 414.25669686 157.453125 427.36328125 C156.93510954 429.16900496 156.36919984 430.96242589 155.734375 432.73046875 C154.9824046 435.05437728 154.5049089 436.80660803 154.625 439.25 C156.05618176 441.4788149 157.72621309 443.16291457 159.60546875 445.02734375 C167.75620645 453.99788486 170.1120942 466.10278064 169.9609375 477.84765625 C169.48341443 482.68396551 168.26212174 487.25617078 167.06152344 491.95556641 C165.13052046 499.75492599 164.78236138 507.01040473 166.625 514.875 C169.01041671 525.48066568 169.09317697 538.23763609 164.625 548.25 C164.31949219 548.96800781 164.01398437 549.68601562 163.69921875 550.42578125 C148.75299143 581.02478481 106.26770653 597.27879138 76.625 608.25 C75.7494043 608.57452148 74.87380859 608.89904297 73.97167969 609.23339844 C47.72214413 618.80003197 20.17109817 624.83908889 -7.375 629.25 C-8.03653076 629.35654907 -8.69806152 629.46309814 -9.37963867 629.57287598 C-38.5882811 634.2248075 -70.28093963 636.76406987 -99.375 630.25 C-100.53950684 629.99259033 -100.53950684 629.99259033 -101.72753906 629.72998047 C-121.86780662 625.09465357 -140.03945146 615.86954594 -155.12109375 601.59765625 C-158.90555778 598.05933622 -162.36814105 597.47036943 -167.375 597.25 C-170.39834962 597.38453719 -173.37436516 597.74044659 -176.375 598.125 C-178.07787296 598.31992293 -179.78100397 598.51260363 -181.484375 598.703125 C-182.73831055 598.84524414 -182.73831055 598.84524414 -184.01757812 598.99023438 C-205.75227594 601.38519279 -228.26061285 601.09197667 -250.00561523 598.96166992 C-262.0998457 597.334477 -262.0998457 597.334477 -273.625 599.8125 C-275.12874712 601.14536677 -276.63032226 602.48076106 -278.12109375 603.828125 C-309.19281832 631.58636586 -352.3864855 634.97668941 -392.15234375 632.94140625 C-454.44626245 629.14503828 -539.89038695 610.82079798 -585.12109375 563.84765625 C-594.4880215 553.05215027 -599.73198013 540.4374847 -599.6015625 526.11328125 C-599.13333938 520.19590973 -598.14135262 513.42702331 -595.23046875 508.19140625 C-592.73451327 502.52706892 -596.66265111 493.84945862 -598.69140625 488.3203125 C-602.45414924 476.92457659 -601.29569398 463.20405159 -596.015625 452.4921875 C-593.24538516 447.70852591 -590.17883332 443.26515739 -586.375 439.25 C-585.715 439.25 -585.055 439.25 -584.375 439.25 C-584.72433594 438.23679687 -585.07367187 437.22359375 -585.43359375 436.1796875 C-585.89347229 434.82820771 -586.35309409 433.47664053 -586.8125 432.125 C-587.04259766 431.45984375 -587.27269531 430.7946875 -587.50976562 430.109375 C-592.04109358 416.71240538 -591.80117286 402.39848356 -586.12109375 389.375 C-579.72482441 376.8264607 -570.20873966 367.24721851 -556.6875 362.8125 C-552.12073554 361.45327621 -548.13722029 361.10024464 -543.375 361.25 C-543.53057373 360.59966797 -543.68614746 359.94933594 -543.84643555 359.27929688 C-549.84550636 333.93569939 -554.46168885 308.25155484 -556.375 282.25 C-556.43139648 281.50186035 -556.48779297 280.7537207 -556.54589844 279.98291016 C-561.82798705 207.14322079 -542.40921955 134.64285953 -501.375 74.25 C-500.96958984 73.65026367 -500.56417969 73.05052734 -500.14648438 72.43261719 C-491.00353314 59.00250469 -480.56215611 46.51448967 -469.5390625 34.59375 C-467.59374432 32.48690721 -465.6933713 30.35179026 -463.8125 28.1875 C-463.255625 27.55070312 -462.69875 26.91390625 -462.125 26.2578125 C-460.89006473 24.8409448 -459.66148529 23.4185252 -458.4375 21.9921875 C-448.49401711 10.62298464 -437.25210807 0.81012114 -425.24951172 -8.3125 C-423.26559128 -9.83390187 -421.30591027 -11.38322636 -419.34765625 -12.9375 C-409.47529984 -20.72036514 -399.27890666 -27.50169393 -388.375 -33.75 C-387.52808594 -34.23855469 -386.68117188 -34.72710937 -385.80859375 -35.23046875 C-298.08345781 -85.48831541 -188.45205843 -90.51808919 0 0 Z " fill="#C8C8C8" transform="translate(728.375,232.75)"/>
<path d="M0 0 C12.00198534 0.296538 20.07191124 7.58633699 28.3203125 15.7265625 C37.99124051 26.07142278 45.24006043 38.30037791 52.71875 50.25390625 C54.86055766 53.67412172 57.02740571 57.07616034 59.21875 60.46484375 C64.44460867 68.56541576 69.58390228 76.68809465 74.39453125 85.04296875 C74.77252365 85.69755066 75.15051605 86.35213257 75.53996277 87.02655029 C77.40231703 90.25581455 79.25019459 93.49214043 81.0769043 96.74169922 C81.75922359 97.93348545 82.4419054 99.12506423 83.125 100.31640625 C83.71667969 101.36513916 84.30835938 102.41387207 84.91796875 103.49438477 C87.93653075 107.79999563 91.91532066 111.53488976 96.9375 113.375 C102.91090438 114.13399693 107.79419566 113.71814782 112.9375 110.375 C115.27510576 108.03739424 115.28045127 107.44241017 115.375 104.25 C115.41496094 103.52554688 115.45492187 102.80109375 115.49609375 102.0546875 C113.61574163 93.03425705 105.82289146 87.25448102 99.26367188 81.46289062 C92.65052048 75.47284505 87.44888709 69.08362155 84.625 60.5 C84.16673828 59.14261719 84.16673828 59.14261719 83.69921875 57.7578125 C83.32216797 56.57832031 83.32216797 56.57832031 82.9375 55.375 C82.6075 54.385 82.2775 53.395 81.9375 52.375 C81.14408969 39.45932071 81.29666825 29.51274058 90.0625 19.3125 C94.5610176 14.4829594 94.5610176 14.4829594 99.125 14.125 C104.43547377 14.47322779 107.93753502 15.28201339 111.6171875 19.1328125 C117.816602 27.33203813 121.68130798 37.08359574 125.9375 46.375 C137.93992911 72.48412155 151.99633798 96.46197629 171.9375 117.375 C174.31319487 120.00630761 176.63379516 122.6805787 178.9375 125.375 C179.64648438 126.19355469 180.35546875 127.01210938 181.0859375 127.85546875 C194.41359095 143.61666984 202.55965147 159.30782775 200.9375 180.375 C197.72870312 199.81056083 186.86005968 219.56725911 170.9375 231.375 C136.26150007 254.68741627 90.93197904 249.25956538 51.9375 242.375 C51.21808228 242.24957825 50.49866455 242.12415649 49.75744629 241.99493408 C39.78945647 240.25697841 29.85438887 238.38594115 19.9375 236.375 C19.07576172 236.20145996 18.21402344 236.02791992 17.32617188 235.84912109 C-17.73565252 228.63722976 -60.52310871 215.657813 -84.1875 186.875 C-86.52617675 182.50947006 -87.29891251 179.21832623 -86.0625 174.375 C-83.99461963 171.00605204 -81.62776452 168.15763226 -78.0625 166.375 C-59.24386009 163.89420001 -40.59237238 176.72271374 -25.11914062 185.84790039 C-15.18998831 191.69503698 -5.56295649 194.33423471 5.9375 195.375 C7.76882306 193.54367694 7.22797035 191.0230529 7.36328125 188.578125 C6.73592942 185.33201095 5.1730905 183.79535005 2.9375 181.375 C0.69465942 179.99073835 -1.40574381 178.8374912 -3.7734375 177.72265625 C-4.46110199 177.38911636 -5.14876648 177.05557648 -5.85726929 176.71192932 C-16.30553922 171.72459281 -27.02247665 167.30990512 -37.6875 162.8125 C-77.03819003 146.20829908 -77.03819003 146.20829908 -83.0625 137.375 C-83.49175781 136.83359375 -83.92101562 136.2921875 -84.36328125 135.734375 C-87.51891451 131.26660557 -87.84939687 126.57590875 -87.61328125 121.19921875 C-86.86010211 117.33717253 -85.74498586 115.50978461 -82.4921875 113.30859375 C-72.10383976 109.31692959 -60.78951526 113.2066332 -51.0625 117.375 C-45.60476212 119.80534403 -40.32757986 122.55611707 -35.0625 125.375 C-34.31935547 125.76929199 -33.57621094 126.16358398 -32.81054688 126.56982422 C-21.25126297 132.72555538 -9.98562959 139.32649018 1.18530273 146.16040039 C14.20127672 154.27256019 14.20127672 154.27256019 28.9375 157.375 C29.12996583 155.71307279 29.26386193 154.04433923 29.375 152.375 C29.49681641 150.9828125 29.49681641 150.9828125 29.62109375 149.5625 C28.25716469 143.20269365 23.12230602 138.96712963 17.87109375 135.4609375 C16.38019219 134.54448577 14.88102713 133.64137732 13.375 132.75 C11.6714753 131.70638132 9.96836619 130.66208403 8.265625 129.6171875 C7.38583984 129.08319336 6.50605469 128.54919922 5.59960938 127.99902344 C-20.88205154 111.84385026 -47.95224569 94.97908883 -71.94140625 75.2421875 C-72.49513916 74.7869873 -73.04887207 74.33178711 -73.61938477 73.86279297 C-77.64114537 69.71652176 -77.65069279 65.01698007 -77.58984375 59.5 C-76.71719263 54.32873407 -73.79180883 50.92712447 -70.0625 47.375 C-64.27149297 44.47949648 -56.80428613 46.6419721 -50.9375 48.41015625 C-30.18318809 55.37525821 -13.86232817 69.04865623 2.37890625 83.28125 C6.22288883 86.64179632 10.17171357 89.86268835 14.140625 93.07421875 C16.78668484 95.25093558 19.38534466 97.47172096 21.97509766 99.71459961 C24.94747074 102.28588631 27.93995053 104.83314269 30.9375 107.375 C31.8342041 108.13925293 31.8342041 108.13925293 32.74902344 108.91894531 C40.92510449 115.83036483 48.51195513 121.87157323 59.625 122.625 C60.388125 122.5425 61.15125 122.46 61.9375 122.375 C61.9375 110.60555218 54.48114162 103.81527819 46.63867188 95.93164062 C44.45832461 93.77010568 42.25953346 91.62881091 40.05859375 89.48828125 C36.75020296 86.24313009 33.67771241 82.86506338 30.65942383 79.35083008 C27.73110927 75.99072094 24.63434257 72.79082139 21.5625 69.5625 C16.50006036 64.20146644 11.6348989 58.79315541 7.0546875 53.01171875 C5.11859221 50.60052996 3.10420715 48.27785958 1.06323242 45.95556641 C-6.7827068 36.88584153 -11.53798939 29.11035959 -11.6875 17 C-11.69861816 16.23864746 -11.70973633 15.47729492 -11.72119141 14.69287109 C-11.5245863 7.06560128 -8.26314002 0.11621857 0 0 Z " fill="#D6D6D6" transform="translate(251.0625,582.625)"/>
<path d="M0 0 C3.22344672 2.4340312 4.7746971 4.66204565 7 8 C8.43347283 22.53474778 5.27778839 33.56257744 -4 45 C-10.14765079 52.14111115 -16.75132334 58.8066566 -23.44824219 65.42944336 C-26.20268374 68.16294328 -28.86977342 70.90727005 -31.375 73.875 C-34.16354568 77.17686006 -37.18455177 80.17261534 -40.27246094 83.18969727 C-58.05214297 99.70689317 -58.05214297 99.70689317 -67 121 C-65.80691862 122.41200829 -65.80691862 122.41200829 -62.375 122.25 C-54.19949062 122.13320701 -47.36171494 117.51988733 -41.8125 111.8125 C-41.22210937 111.20277344 -40.63171875 110.59304688 -40.0234375 109.96484375 C-37.76864472 107.7753442 -35.39270554 105.83700443 -32.9375 103.875 C-28.4396397 100.25943603 -24.19912231 96.45719521 -20 92.5 C-15.04081683 87.83067416 -9.95851399 83.42931119 -4.63671875 79.171875 C-1.8704628 76.89329973 0.74993873 74.50195088 3.375 72.0625 C18.09023427 58.5996261 33.40961453 46.65605755 54.125 46.625 C55.42630859 46.58826172 55.42630859 46.58826172 56.75390625 46.55078125 C62.34419501 46.52525482 65.61735351 47.20348252 70 51 C72.79860619 53.94151374 73.49544703 56.08530289 73.625 60.125 C73.36058268 68.07867302 69.25320855 72.80902674 63.75390625 78.203125 C57.66704312 83.48283779 50.94542496 87.68416349 44.11206055 91.91650391 C36.65704133 96.53917868 29.35069842 101.37082441 22.0625 106.25 C21.50062988 106.62591278 20.93875977 107.00182556 20.35986328 107.38912964 C17.63279979 109.21400559 14.90698051 111.04071931 12.18212891 112.86889648 C9.0314567 114.97893313 5.87357759 117.07783852 2.71484375 119.17578125 C-2.07067722 122.36507989 -6.8086309 125.61145276 -11.5 128.9375 C-12.21559082 129.44474609 -12.93118164 129.95199219 -13.66845703 130.47460938 C-18.09173774 133.62066901 -22.50547458 136.77959414 -26.875 140 C-27.80054688 140.680625 -28.72609375 141.36125 -29.6796875 142.0625 C-31.94245038 143.9519451 -33.563593 145.427042 -35 148 C-35.14874232 150.60245889 -35.14874232 150.60245889 -34.6875 153.25 C-34.56761719 154.14203125 -34.44773437 155.0340625 -34.32421875 155.953125 C-34.16373047 156.96632813 -34.16373047 156.96632813 -34 158 C-26.44674046 157.67590305 -21.01451587 154.81282723 -14.4375 151.25 C-13.34123291 150.66798828 -12.24496582 150.08597656 -11.11547852 149.48632812 C-1.91865061 144.57359723 7.15270539 139.44355225 16.2109375 134.28125 C22.33852105 130.79656734 28.50183792 127.3804071 34.6875 124 C35.64277588 123.47212891 36.59805176 122.94425781 37.58227539 122.40039062 C49.97801167 115.6581115 61.5952872 110.33722261 76 112 C79.2860792 113.60413338 81.34412029 115.68824058 83 119 C83.78388685 125.91362501 83.08157222 131.3163972 79 137 C73.27958681 142.9829624 67.16819055 146.89978551 59.6875 150.3125 C58.66076172 150.79541504 57.63402344 151.27833008 56.57617188 151.77587891 C49.07682185 155.25406978 41.49197067 158.52784558 33.89453125 161.78515625 C32.43221321 162.41279625 32.43221321 162.41279625 30.94035339 163.05311584 C26.02394846 165.16049221 21.10233327 167.25405196 16.1706543 169.32543945 C14.32204896 170.1100618 12.47349537 170.89480609 10.625 171.6796875 C9.78826248 172.02624893 8.95152496 172.37281036 8.08943176 172.72987366 C0.89963041 175.79882315 -8.16511293 179.853165 -12 187 C-12.00187054 191.352329 -12.00187054 191.352329 -10 195 C3.00464695 196.90843876 14.94451835 188.63115751 26.04034424 182.8119812 C29.67711786 180.90737621 33.32521422 179.02469595 36.97265625 177.140625 C37.67823669 176.77593613 38.38381714 176.41124725 39.11077881 176.0355072 C44.42647644 173.29029155 49.74368115 170.55250327 55.125 167.9375 C56.06122192 167.46413208 56.06122192 167.46413208 57.01635742 166.98120117 C62.45711449 164.39163574 66.94778321 164.32772209 72.625 166.1875 C76.38784251 168.20828579 78.56712116 169.46126714 81 173 C82.04172964 177.70625376 82.15973448 181.99142373 79.703125 186.24609375 C77.90611631 188.36046407 76.08033826 190.15861951 74 192 C73.47196777 192.51272461 72.94393555 193.02544922 72.39990234 193.55371094 C66.7481381 198.851045 60.50852556 202.27136208 53.625 205.75 C52.74396103 206.19937927 52.74396103 206.19937927 51.84512329 206.65783691 C23.82692876 220.92746456 -5.81360077 232.38907024 -36.71044922 238.54150391 C-38.78290589 238.95652562 -40.84654351 239.39885094 -42.91015625 239.85546875 C-52.83880315 241.98380764 -62.86731896 243.33888824 -72.93774414 244.60375977 C-75.14271667 244.88907192 -77.34480393 245.19701067 -79.54467773 245.51928711 C-90.43774489 247.04238611 -101.19450827 247.44255198 -112.1875 247.4375 C-113.08975311 247.43790283 -113.99200623 247.43830566 -114.92160034 247.4387207 C-137.69838618 247.38016401 -160.40332027 243.90883494 -178 228 C-179.28777344 226.84951172 -179.28777344 226.84951172 -180.6015625 225.67578125 C-191.03830259 215.82844384 -198.15767907 204.53516213 -203 191 C-203.36609375 190.10667969 -203.7321875 189.21335937 -204.109375 188.29296875 C-207.00708486 177.57906781 -206.2949114 163.20041457 -202 153 C-201.5359375 151.88496094 -201.071875 150.76992188 -200.59375 149.62109375 C-197.18673364 142.17226316 -193.27436765 136.56621416 -187.53125 130.6328125 C-185.07649963 128.07956906 -182.84464581 125.44597287 -180.625 122.6875 C-177.70340696 119.06122695 -174.71979679 115.51105668 -171.65551758 112.00610352 C-151.93866864 89.38315019 -136.96338538 63.59281534 -125.48608398 35.9152832 C-122.44603059 28.66553199 -119.17082216 21.1423518 -113 16 C-108.0291445 14.34304817 -103.17052851 14.20298848 -98 15 C-92.04983142 18.36543223 -89.06689559 24.7104145 -87 31 C-83.83059199 44.04168568 -86.17542392 57.63671566 -92.83203125 69.17578125 C-98.04948272 76.61605229 -104.39083001 82.78099251 -111.25 88.6875 C-116.67042139 93.42637528 -119.33784931 96.56353314 -120.1171875 103.81640625 C-119.97941345 106.38359608 -119.37354013 107.83828751 -118 110 C-112.9677075 113.52260475 -107.93110727 113.8237649 -102 113 C-92.63293794 110.01665489 -88.98512917 102.50413145 -84.3125 94.4375 C-76.98103338 81.90782063 -69.46652879 69.49447186 -61.89746094 57.10742188 C-60.25224608 54.41309677 -58.61381579 51.71478931 -56.9765625 49.015625 C-52.445154 41.5927062 -47.66168636 34.62076984 -42 28 C-41.06575797 26.89377634 -40.13220969 25.78696654 -39.19921875 24.6796875 C-37.31104089 22.44111969 -35.41581668 20.20884073 -33.515625 17.98046875 C-31.95899588 16.13620164 -30.43764647 14.26068967 -28.9765625 12.33984375 C-25.62069965 8.36719188 -21.3337258 5.80825432 -17 3 C-16.030625 2.360625 -15.06125 1.72125 -14.0625 1.0625 C-9.375044 -0.56376024 -4.89668836 -0.81362657 0 0 Z " fill="#D6D6D6" transform="translate(779,583)"/>
<path d="M0 0 C2.75569447 2.18159145 4.43588747 3.87177494 6 7 C8.50377626 38.20995044 -2.256507 67.93149128 -22.29296875 91.72265625 C-26.78116114 96.84429404 -31.46090307 101.98847177 -37 106 C-37.66 106 -38.32 106 -39 106 C-40.515625 104.05859375 -40.515625 104.05859375 -42.25 101.4375 C-51.41424599 88.05807721 -64.0462269 76.56133868 -80 72 C-83.51811407 71.59697098 -83.51811407 71.59697098 -87 73 C-91.47976898 77.41262041 -94.72341896 82.90215413 -97.76171875 88.37109375 C-100.01035914 91.32908442 -102.35992504 91.87454531 -105.9296875 92.57421875 C-109.38979806 91.92709884 -109.67401551 91.60561984 -111.6328125 88.89453125 C-112.48501621 87.54719984 -113.31513332 86.18569665 -114.125 84.8125 C-118.70627904 76.1689978 -118.70627904 76.1689978 -126.328125 71.00390625 C-130.64490163 70.99931393 -132.94391539 71.93360522 -136.75 73.9375 C-137.35199219 74.25380371 -137.95398438 74.57010742 -138.57421875 74.89599609 C-144.43364419 78.06262533 -149.7942625 81.85167793 -155 86 C-155.99515625 86.76957031 -156.9903125 87.53914062 -158.015625 88.33203125 C-161.21764082 91.0195106 -163.45750625 94.09180825 -165.75 97.5625 C-166.32814453 98.40844727 -166.32814453 98.40844727 -166.91796875 99.27148438 C-168.82538354 102.09300626 -170.57664795 104.90345219 -172 108 C-175.03175582 108.29846301 -176.49453983 108.38842748 -178.95703125 106.49609375 C-179.56933594 105.81675781 -180.18164062 105.13742187 -180.8125 104.4375 C-183.40530606 101.6553317 -185.97864757 99.13712198 -188.9375 96.75 C-207.81204434 80.26696713 -219.39820291 50.64221805 -221.21777344 26.05761719 C-221.33567024 23.07706921 -221.37108564 20.10774607 -221.375 17.125 C-221.39949219 16.11953125 -221.42398437 15.1140625 -221.44921875 14.078125 C-221.46683844 9.64970895 -221.4278609 6.78118495 -219.2734375 2.84765625 C-215.82867837 0.04804961 -213.58964387 0.24041942 -209.2734375 0.47265625 C-198.16047526 2.2629306 -188.00250205 7.91813303 -178 12.8125 C-143.20586857 29.78094998 -108.05183959 39.99379808 -70.20166016 27.12890625 C-54.36089815 21.54344922 -39.15243743 14.59591606 -24.14453125 7.078125 C-23.20448242 6.6133374 -22.26443359 6.1485498 -21.29589844 5.66967773 C-19.53436319 4.79504622 -17.78034645 3.90502128 -16.03613281 2.99633789 C-10.76406766 0.37795016 -5.92109855 -1.17941496 0 0 Z " fill="#353535" transform="translate(616,491)"/>
<path d="M0 0 C2.10902279 2.00086778 3.40703201 3.61724115 5 6 C6.01513672 7.46566406 6.01513672 7.46566406 7.05078125 8.9609375 C12.79729143 17.39187428 12.79729143 17.39187428 14 21 C15.62868288 20.79866835 17.25313636 20.56290104 18.875 20.3125 C19.77992188 20.18488281 20.68484375 20.05726563 21.6171875 19.92578125 C24.19945138 19.23406482 24.19945138 19.23406482 25.078125 16.76953125 C25.38234375 15.85558594 25.6865625 14.94164062 26 14 C27.23689951 12.08842803 28.53251235 10.21395478 29.875 8.375 C30.55304688 7.43398438 31.23109375 6.49296875 31.9296875 5.5234375 C33.8428473 3.19154838 35.41740566 1.53823846 38 0 C49.13999969 -0.19892857 58.84993141 7.07550563 67 14 C67.66515625 14.52078125 68.3303125 15.0415625 69.015625 15.578125 C75.37203169 20.73332098 82.37703824 28.13111473 85 36 C72.05004655 50.73615392 49.81486788 56.89236145 31 59 C25.77001569 59.30960528 20.55035274 59.39176336 15.3125 59.375 C14.61001129 59.3737915 13.90752258 59.37258301 13.18374634 59.37133789 C-10.17734615 59.26254125 -30.28177342 52.59447606 -50 40 C-48.44511447 28.8129015 -38.85350987 19.04121575 -30.25 12.4375 C-25.01012862 8.62609417 -19.68959152 5.10251245 -14 2 C-13.04480469 1.47212891 -13.04480469 1.47212891 -12.0703125 0.93359375 C-7.73094437 -1.21680423 -4.60616707 -1.45008963 0 0 Z " fill="#878787" transform="translate(493,562)"/>
<path d="M0 0 C0.6909375 0.25523437 1.381875 0.51046875 2.09375 0.7734375 C13.32170104 5.62997188 20.33767156 14.99291268 25 26 C27.6754979 35.51288143 27.2562958 48.05834632 23 57 C22.6596875 57.80566406 22.319375 58.61132812 21.96875 59.44140625 C18.14959075 67.89258634 12.64239198 75.68867601 3.87890625 79.41015625 C1.02393972 80.30641393 -1.04551949 80.52524098 -4 80 C-8.2661883 77.06876135 -11.06007837 73.56292941 -14.0625 69.4375 C-17.88712116 64.06386588 -17.88712116 64.06386588 -23 60 C-30.02272426 59.06363676 -35.75825394 60.94150983 -42.32714844 63.22070312 C-45.97450315 64.47030928 -49.13518789 65.54716874 -53 65 C-58.746353 59.66410079 -61.02088107 52.85526869 -61.43359375 45.09765625 C-61.45726537 43.41943727 -61.45812575 41.74075918 -61.4375 40.0625 C-61.42847656 39.18150635 -61.41945313 38.3005127 -61.41015625 37.39282227 C-61.07865359 24.96952981 -55.68987054 16.1904731 -47.27734375 7.1484375 C-34.46557081 -4.66383542 -15.85680658 -6.07844252 0 0 Z " fill="#363636" transform="translate(633,353)"/>
<path d="M0 0 C8.78213204 7.4177651 17.05414509 16.33171699 18.62597656 28.17431641 C19.35461604 37.67042936 19.58873723 48.49102708 14.3125 56.8125 C10.67017114 60.25503867 7.84928637 60.30380727 3.01953125 60.18359375 C0.15584183 59.79102449 -1.99421366 58.99152865 -4.625 57.8125 C-9.85797756 55.50140581 -15.02982461 54.6305586 -20.6875 55.8125 C-24.60776026 58.3883311 -27.04686089 61.41149032 -29.6875 65.25 C-31.02055754 67.10436496 -32.35386246 68.95855213 -33.6875 70.8125 C-34.11933594 71.42738281 -34.55117188 72.04226563 -34.99609375 72.67578125 C-36.59909774 74.64486919 -38.10967816 75.697171 -40.60546875 76.1953125 C-48.3030539 76.16806441 -53.52653369 70.99685437 -58.6875 65.8125 C-66.05304907 57.22828736 -69.2620479 48.64028183 -69.0625 37.375 C-69.05234863 36.54170166 -69.04219727 35.70840332 -69.03173828 34.84985352 C-68.7302442 22.89175704 -64.66063613 13.1451136 -56.6875 4.125 C-41.81860734 -9.91043455 -16.47231051 -12.00524325 0 0 Z " fill="#353535" transform="translate(422.6875,357.1875)"/>
<path d="M0 0 C5.49394786 4.50627184 9.57831127 9.75055882 11.8359375 16.5234375 C12.74955941 27.29112424 11.91577989 35.19800476 5.00390625 43.8046875 C-1.4855831 50.87016703 -6.93728481 52.63190228 -16.4140625 53.0859375 C-24.92270154 52.89082414 -31.92461133 50.6114797 -38.1328125 44.625 C-43.54127391 37.91744737 -45.77790572 30.98217025 -45.515625 22.3984375 C-44.58970303 14.82645338 -41.84492621 7.72082344 -36.1640625 2.5234375 C-24.78764629 -4.6545394 -12.01725956 -8.19950201 0 0 Z " fill="#BFBFBF" transform="translate(732.1640625,399.4765625)"/>
<path d="M0 0 C1.14662109 -0.0299707 1.14662109 -0.0299707 2.31640625 -0.06054688 C9.07225647 -0.05481186 13.94051621 2.03195469 19.296875 6.078125 C26.31910533 13.2394094 28.80219533 19.16712784 28.73632812 29.28833008 C28.33283213 37.77262457 24.97426142 45.1477634 18.75 51 C10.30614086 57.18243682 1.21264976 57.51065423 -8.875 56.4375 C-16.33329627 54.11645344 -21.27013901 48.89254263 -25.12890625 42.29296875 C-28.86080946 34.45207108 -29.30589748 25.39799346 -27.28515625 16.98046875 C-24.41866681 10.28318697 -18.17595764 5.49352505 -12.140625 1.734375 C-7.96733534 0.07703987 -4.44670742 -0.04082953 0 0 Z " fill="#BFBFBF" transform="translate(309.875,395.5625)"/>
</svg>
