<svg version="1.1" id="Layer_1" xmlns="http://www.w3.org/2000/svg" xmlns:xlink="http://www.w3.org/1999/xlink" x="0px" y="0px"
	 width="100%" viewBox="0 0 1024 1024" enable-background="new 0 0 1024 1024" xml:space="preserve">
<path d="M0 0 C0.99232635 -0.00067474 1.98465271 -0.00134949 3.00704956 -0.00204468 C85.10801949 0.08615528 164.38591473 26.74349727 225.625 82.25 C226.20507812 82.77368164 226.78515625 83.29736328 227.3828125 83.83691406 C236.18926136 91.80911973 244.91173 99.88900756 252.640625 108.9296875 C254.1545273 110.69988034 255.68976703 112.45184782 257.234375 114.1953125 C269.60838295 128.24024023 280.58216795 143.46282433 290.625 159.25 C290.98867676 159.82041016 291.35235352 160.39082031 291.72705078 160.97851562 C324.5329543 212.91506929 341.83670821 271.81679229 341.875 333.1875 C341.87601212 334.64905518 341.87601212 334.64905518 341.87704468 336.14013672 C341.83886313 370.99596206 336.2192453 404.5139154 327.625 438.25 C328.59578491 438.22280884 328.59578491 438.22280884 329.58618164 438.19506836 C343.4865847 437.96980949 355.25145476 443.11198976 365.4375 452.5625 C375.83938181 463.71092836 380.07408072 477.44813781 379.84765625 492.38671875 C379.38173618 500.47084064 376.58381256 507.78252069 373.625 515.25 C374.13289062 515.77207031 374.64078125 516.29414062 375.1640625 516.83203125 C385.51599651 527.9012341 390.14080787 538.73947451 390.03515625 553.84765625 C389.71268204 559.01795308 388.32973007 563.88739894 387 568.875 C384.77571362 577.29626571 384.31546303 583.71787637 386.625 592.25 C389.85058652 606.77568046 389.05099065 619.10401396 380.95703125 632.10546875 C372.99455517 642.84214086 362.94550233 651.24988262 351.625 658.25 C350.11679688 659.2090625 350.11679688 659.2090625 348.578125 660.1875 C304.86347302 686.62953339 249.72612668 700.66208065 199.625 707.25 C198.74779297 707.36859375 197.87058594 707.4871875 196.96679688 707.609375 C158.07022014 712.68678362 110.4583117 711.51156162 77.625 687.25 C68.84945697 680.3996434 68.84945697 680.3996434 64.8828125 676.56640625 C62.27108077 674.07467301 60.9173997 673.26869998 57.265625 673.03515625 C52.55647027 673.1508197 47.91139459 673.75443996 43.23852539 674.31787109 C16.26701031 677.48846163 -10.94176525 677.48289763 -37.89624023 674.14208984 C-39.07774658 673.99980957 -40.25925293 673.8575293 -41.4765625 673.7109375 C-42.50088379 673.57478027 -43.52520508 673.43862305 -44.58056641 673.29833984 C-48.76772277 673.22590782 -51.39368538 674.41965686 -54.55859375 677.09765625 C-55.30238281 677.82855469 -56.04617188 678.55945313 -56.8125 679.3125 C-76.07546825 697.06520595 -100.86233455 704.94809211 -126.375 708.25 C-127.11266602 708.34571289 -127.85033203 708.44142578 -128.61035156 708.54003906 C-136.14177915 709.4058274 -143.67573272 709.49333847 -151.25 709.5 C-151.94685913 709.50067474 -152.64371826 709.50134949 -153.36169434 709.50204468 C-214.69099722 709.40885758 -279.36552644 691.18364655 -333.375 662.25 C-334.41140625 661.70214844 -335.4478125 661.15429688 -336.515625 660.58984375 C-353.7007542 651.07504054 -369.84183168 637.70562857 -375.83203125 618.35546875 C-378.92889185 606.34677909 -377.96748538 594.43497077 -372.375 583.25 C-371.95507355 578.82108817 -372.82859596 575.63186417 -374.51025391 571.54199219 C-379.76862406 558.7449423 -380.33914807 546.36344699 -375.71875 533.1953125 C-373.53658381 528.4123087 -370.63152161 524.35276389 -367.375 520.25 C-366.85035156 519.49847656 -366.32570313 518.74695313 -365.78515625 517.97265625 C-365.08712891 517.11994141 -365.08712891 517.11994141 -364.375 516.25 C-363.715 516.25 -363.055 516.25 -362.375 516.25 C-362.89900391 514.82107422 -362.89900391 514.82107422 -363.43359375 513.36328125 C-363.89341666 512.09642221 -364.35304162 510.8294913 -364.8125 509.5625 C-365.04259766 508.93666016 -365.27269531 508.31082031 -365.50976562 507.66601562 C-370.22717335 494.60768409 -369.99886371 479.99520593 -364.375 467.25 C-358.1297813 455.1155077 -349.33954864 446.18607271 -336.61523438 440.92626953 C-331.66976495 439.43335864 -326.48740746 438.90134501 -321.375 438.25 C-321.56610352 437.4470752 -321.75720703 436.64415039 -321.95410156 435.81689453 C-329.34127055 404.55699112 -334.36810184 373.3983497 -335.375 341.25 C-335.41753906 339.97511719 -335.46007812 338.70023437 -335.50390625 337.38671875 C-336.70979487 262.54123194 -310.72123998 188.16536433 -263.375 130.25 C-262.63378906 129.31929687 -261.89257812 128.38859375 -261.12890625 127.4296875 C-256.51625978 121.68986053 -251.68000151 116.20025736 -246.69140625 110.78515625 C-244.80770677 108.72356947 -242.98863292 106.63279934 -241.1875 104.5 C-233.03707594 95.12701233 -223.97612213 86.13126895 -214.375 78.25 C-213.84922363 77.81042969 -213.32344727 77.37085938 -212.78173828 76.91796875 C-198.49158799 64.97672576 -183.71979571 53.62892173 -167.48486328 44.44384766 C-165.98707579 43.59633772 -164.49368964 42.7410283 -163.00341797 41.88037109 C-113.10781029 13.13689254 -57.34414513 0.03518448 0 0 Z " fill="#FED11D" transform="translate(507.375,155.75)"/>
<path d="M0 0 C0.99232635 -0.00067474 1.98465271 -0.00134949 3.00704956 -0.00204468 C85.10801949 0.08615528 164.38591473 26.74349727 225.625 82.25 C226.20507812 82.77368164 226.78515625 83.29736328 227.3828125 83.83691406 C236.18926136 91.80911973 244.91173 99.88900756 252.640625 108.9296875 C254.1545273 110.69988034 255.68976703 112.45184782 257.234375 114.1953125 C269.60838295 128.24024023 280.58216795 143.46282433 290.625 159.25 C290.98867676 159.82041016 291.35235352 160.39082031 291.72705078 160.97851562 C324.5329543 212.91506929 341.83670821 271.81679229 341.875 333.1875 C341.87601212 334.64905518 341.87601212 334.64905518 341.87704468 336.14013672 C341.83886313 370.99596206 336.2192453 404.5139154 327.625 438.25 C328.59578491 438.22280884 328.59578491 438.22280884 329.58618164 438.19506836 C343.4865847 437.96980949 355.25145476 443.11198976 365.4375 452.5625 C375.83938181 463.71092836 380.07408072 477.44813781 379.84765625 492.38671875 C379.38173618 500.47084064 376.58381256 507.78252069 373.625 515.25 C374.13289062 515.77207031 374.64078125 516.29414062 375.1640625 516.83203125 C385.51599651 527.9012341 390.14080787 538.73947451 390.03515625 553.84765625 C389.71268204 559.01795308 388.32973007 563.88739894 387 568.875 C384.77571362 577.29626571 384.31546303 583.71787637 386.625 592.25 C389.85058652 606.77568046 389.05099065 619.10401396 380.95703125 632.10546875 C372.99455517 642.84214086 362.94550233 651.24988262 351.625 658.25 C350.11679688 659.2090625 350.11679688 659.2090625 348.578125 660.1875 C304.86347302 686.62953339 249.72612668 700.66208065 199.625 707.25 C198.74779297 707.36859375 197.87058594 707.4871875 196.96679688 707.609375 C158.07022014 712.68678362 110.4583117 711.51156162 77.625 687.25 C68.84945697 680.3996434 68.84945697 680.3996434 64.8828125 676.56640625 C62.27108077 674.07467301 60.9173997 673.26869998 57.265625 673.03515625 C52.55647027 673.1508197 47.91139459 673.75443996 43.23852539 674.31787109 C16.26701031 677.48846163 -10.94176525 677.48289763 -37.89624023 674.14208984 C-39.07774658 673.99980957 -40.25925293 673.8575293 -41.4765625 673.7109375 C-42.50088379 673.57478027 -43.52520508 673.43862305 -44.58056641 673.29833984 C-48.76772277 673.22590782 -51.39368538 674.41965686 -54.55859375 677.09765625 C-55.30238281 677.82855469 -56.04617188 678.55945313 -56.8125 679.3125 C-76.07546825 697.06520595 -100.86233455 704.94809211 -126.375 708.25 C-127.11266602 708.34571289 -127.85033203 708.44142578 -128.61035156 708.54003906 C-136.14177915 709.4058274 -143.67573272 709.49333847 -151.25 709.5 C-151.94685913 709.50067474 -152.64371826 709.50134949 -153.36169434 709.50204468 C-214.69099722 709.40885758 -279.36552644 691.18364655 -333.375 662.25 C-334.41140625 661.70214844 -335.4478125 661.15429688 -336.515625 660.58984375 C-353.7007542 651.07504054 -369.84183168 637.70562857 -375.83203125 618.35546875 C-378.92889185 606.34677909 -377.96748538 594.43497077 -372.375 583.25 C-371.95507355 578.82108817 -372.82859596 575.63186417 -374.51025391 571.54199219 C-379.76862406 558.7449423 -380.33914807 546.36344699 -375.71875 533.1953125 C-373.53658381 528.4123087 -370.63152161 524.35276389 -367.375 520.25 C-366.85035156 519.49847656 -366.32570313 518.74695313 -365.78515625 517.97265625 C-365.08712891 517.11994141 -365.08712891 517.11994141 -364.375 516.25 C-363.715 516.25 -363.055 516.25 -362.375 516.25 C-362.89900391 514.82107422 -362.89900391 514.82107422 -363.43359375 513.36328125 C-363.89341666 512.09642221 -364.35304162 510.8294913 -364.8125 509.5625 C-365.04259766 508.93666016 -365.27269531 508.31082031 -365.50976562 507.66601562 C-370.22717335 494.60768409 -369.99886371 479.99520593 -364.375 467.25 C-358.1297813 455.1155077 -349.33954864 446.18607271 -336.61523438 440.92626953 C-331.66976495 439.43335864 -326.48740746 438.90134501 -321.375 438.25 C-321.56610352 437.4470752 -321.75720703 436.64415039 -321.95410156 435.81689453 C-329.34127055 404.55699112 -334.36810184 373.3983497 -335.375 341.25 C-335.41753906 339.97511719 -335.46007812 338.70023437 -335.50390625 337.38671875 C-336.70979487 262.54123194 -310.72123998 188.16536433 -263.375 130.25 C-262.63378906 129.31929687 -261.89257812 128.38859375 -261.12890625 127.4296875 C-256.51625978 121.68986053 -251.68000151 116.20025736 -246.69140625 110.78515625 C-244.80770677 108.72356947 -242.98863292 106.63279934 -241.1875 104.5 C-233.03707594 95.12701233 -223.97612213 86.13126895 -214.375 78.25 C-213.84922363 77.81042969 -213.32344727 77.37085938 -212.78173828 76.91796875 C-198.49158799 64.97672576 -183.71979571 53.62892173 -167.48486328 44.44384766 C-165.98707579 43.59633772 -164.49368964 42.7410283 -163.00341797 41.88037109 C-113.10781029 13.13689254 -57.34414513 0.03518448 0 0 Z M-177.375 94.25 C-177.91721191 94.66217773 -178.45942383 95.07435547 -179.01806641 95.49902344 C-186.27702835 101.0398759 -193.23112379 106.76860544 -199.92578125 112.984375 C-202.05887867 114.95757517 -204.22858987 116.86294703 -206.4375 118.75 C-213.99582638 125.33255883 -220.95804975 132.55709247 -227.375 140.25 C-227.82713867 140.78834473 -228.27927734 141.32668945 -228.74511719 141.88134766 C-240.93660938 156.44492252 -252.11520892 171.64418246 -261.375 188.25 C-261.83374512 189.07177734 -262.29249023 189.89355469 -262.76513672 190.74023438 C-287.66369792 235.82526508 -299.56435185 284.9247875 -299.56030273 336.26757812 C-299.56248077 339.34779873 -299.58067197 342.42765528 -299.59960938 345.5078125 C-299.64613505 361.55635336 -298.75552382 377.33514114 -295.375 393.0625 C-295.21 393.88041016 -295.045 394.69832031 -294.875 395.54101562 C-293.97427064 399.89336802 -292.88644877 404.05977818 -291.375 408.25 C-290.68277344 407.70472656 -290.68277344 407.70472656 -289.9765625 407.1484375 C-277.79058806 397.75608566 -266.18341885 391.58090723 -250.375 393.25 C-234.55218297 396.03299547 -220.60930665 402.72389318 -209.375 414.25 C-208.73175781 414.87003906 -208.08851563 415.49007813 -207.42578125 416.12890625 C-203.47780175 419.9569905 -199.90276686 424.03388839 -196.375 428.25 C-195.735625 427.59 -195.09625 426.93 -194.4375 426.25 C-193.42133699 425.24525455 -192.39973367 424.24600282 -191.375 423.25 C-190.72015625 422.610625 -190.0653125 421.97125 -189.390625 421.3125 C-179.75250051 412.28957494 -169.21270198 407.83323691 -156 407.9375 C-155.25685547 407.94241455 -154.51371094 407.9473291 -153.74804688 407.95239258 C-139.27293968 408.26000438 -128.27973524 414.99266901 -118.375 425.25 C-110.55874055 434.27961381 -105.98884773 444.78753275 -101.546875 455.73046875 C-91.27492535 480.97661482 -77.2149123 503.75441849 -58.36914062 523.53881836 C-38.33779093 544.59068411 -22.20598491 567.97346725 -22.1875 597.9375 C-22.17525391 598.96294922 -22.16300781 599.98839844 -22.15039062 601.04492188 C-22.13131893 611.10841748 -23.8116011 620.2936463 -27 629.8125 C-28.6991563 634.43677899 -28.6991563 634.43677899 -29.375 639.25 C-18.5540638 642.31210496 -6.36520184 641.44831059 4.8125 641.4375 C5.96330551 641.43858765 5.96330551 641.43858765 7.13735962 641.43969727 C18.40754246 641.43852064 29.47725472 641.0516558 40.625 639.25 C40.36976563 638.42822266 40.36976563 638.42822266 40.109375 637.58984375 C31.94383134 610.87809187 28.81703234 585.99015256 42.15234375 560.30859375 C48.82838401 548.26030463 57.77308912 537.95463863 66.74609375 527.58984375 C70.80848606 522.89215816 74.74288873 518.09746753 78.625 513.25 C79.40230469 512.29222656 80.17960937 511.33445312 80.98046875 510.34765625 C96.29478294 491.04042071 107.54509939 469.51344347 116.83984375 446.76342773 C119.86806032 439.44497593 123.14840276 431.7081047 128.828125 426.05859375 C130.85993492 424.4384437 130.85993492 424.4384437 130.625 422.25 C131.285 422.25 131.945 422.25 132.625 422.25 C132.625 421.59 132.625 420.93 132.625 420.25 C133.20378906 419.97929688 133.78257812 419.70859375 134.37890625 419.4296875 C136.62920561 418.24779114 138.52249626 416.88640392 140.5625 415.375 C151.99318176 407.79171844 165.28163482 406.5945143 178.578125 408.72265625 C189.98489416 411.71782991 198.34401069 419.2838772 206.625 427.25 C210.39501771 425.99332743 211.18887893 424.46406765 213.5625 421.3125 C224.47849952 407.6675006 239.94456358 396.48130508 257.625 394.25 C273.93598744 393.28236683 284.6412955 395.48015096 298.625 404.25 C301.11212278 395.91750742 303.0314393 387.66402448 304.3125 379.0625 C304.43149658 378.26875977 304.55049316 377.47501953 304.6730957 376.65722656 C306.43869022 364.20768484 306.82959296 351.86426989 306.8125 339.3125 C306.81189575 338.49230377 306.8112915 337.67210754 306.81066895 336.82705688 C306.78544222 324.19815901 306.41482496 311.76892699 304.625 299.25 C304.50141113 298.34169434 304.37782227 297.43338867 304.25048828 296.49755859 C296.67228275 242.09063574 274.49661008 189.81069181 239.625 147.25 C239.17962891 146.70311523 238.73425781 146.15623047 238.27539062 145.59277344 C231.29598268 137.08752251 223.75170999 129.17815484 216 121.375 C215.14172607 120.50746094 214.28345215 119.63992188 213.39916992 118.74609375 C207.44938979 112.8252153 201.19431861 107.46873275 194.625 102.25 C193.20022831 101.08890053 191.77572654 99.92746972 190.3515625 98.765625 C144.09655311 61.66565968 86.4479192 40.27787481 27.625 35.25 C26.50569092 35.14631104 26.50569092 35.14631104 25.36376953 35.04052734 C-45.91418697 28.49793943 -120.627991 51.02189329 -177.375 94.25 Z " fill="#FE9D01" transform="translate(507.375,155.75)"/>
<path d="M0 0 C3.24893509 2.07414714 6.12108011 4.44207466 9 7 C10.07894531 7.95519531 10.07894531 7.95519531 11.1796875 8.9296875 C24.33565678 21.33656245 33.44740246 37.7073505 43.01416016 52.86474609 C44.85381232 55.76919816 46.70952876 58.66236031 48.57421875 61.55078125 C53.60812364 69.36616814 58.5695519 77.20392227 63.25390625 85.234375 C63.6133432 85.8489859 63.97278015 86.4635968 64.34310913 87.09683228 C66.10458705 90.11232428 67.85379353 93.1339286 69.58398438 96.16748047 C70.5343457 97.80547607 70.5343457 97.80547607 71.50390625 99.4765625 C72.05892822 100.44674316 72.6139502 101.41692383 73.18579102 102.41650391 C76.53346573 107.18370803 80.36323328 109.67370195 86 111 C91.43535408 111.62087211 95.3035071 111.05818142 100 108 C102.86548713 105.42106159 102.99626337 104.03309583 103.4375 100.125 C103.03957597 91.81450977 95.69527891 86.33814921 90 81 C88.63040046 79.84771699 87.25570753 78.7014494 85.875 77.5625 C75.68525336 68.77333606 69.85670576 56.20258681 68.7421875 42.9296875 C68.37047272 32.4473307 70.7731901 23.75626597 77.5078125 15.59765625 C80.18017208 12.73641262 82.08729027 11.1102119 86.1015625 10.87890625 C90.6667242 11.11556179 94.14649138 11.96741905 97.54833984 15.24731445 C103.8006143 22.79609992 107.67442954 31.40365624 111.25 40.4375 C123.17600023 69.50596071 140.59402629 95.55663386 162.13085938 118.41845703 C176.63286188 133.84622931 188.9548591 150.67688142 188.2734375 172.796875 C186.69053092 191.33949498 175.78901198 211.48182341 162.27734375 224.1640625 C134.5961263 246.47996679 97.69921742 245.82979781 64.23095703 242.34448242 C53.66838448 241.16543877 43.22598144 239.58498837 32.79638672 237.54589844 C30.90124188 237.17593651 29.00434109 236.81487833 27.10595703 236.46191406 C-10.80564984 229.41122238 -73.81477749 214.88796223 -97.921875 181.32421875 C-99.46959723 177.98764365 -99.44665578 175.63705424 -99 172 C-97.2297126 168.4594252 -95.58848838 166.44495463 -92.4375 164.0625 C-77.368906 159.40493458 -60.01644221 171.30095158 -47 177.9375 C-28.2940665 189.31865014 -28.2940665 189.31865014 -8 193 C-5.87129307 192.03882095 -5.87129307 192.03882095 -5 190 C-4.41737039 186.25452397 -4.78528944 184.40240765 -6.57568359 181.046875 C-9.37282077 177.53143976 -12.2316095 175.88593506 -16.2265625 174.0625 C-16.92987701 173.72677979 -17.63319153 173.39105957 -18.3578186 173.04516602 C-25.24748985 169.79333379 -32.24979485 166.79445227 -39.28359985 163.87014771 C-42.16491257 162.67134907 -45.04019272 161.45837973 -47.91590881 160.24623108 C-50.01657375 159.36084705 -52.11787711 158.47699179 -54.21923828 157.59326172 C-89.67351165 142.66567004 -89.67351165 142.66567004 -96.25 132.4375 C-96.75015625 131.67308594 -97.2503125 130.90867187 -97.765625 130.12109375 C-100.39925784 125.5955791 -100.65539202 121.10846657 -100 116 C-97.84592571 112.38423244 -95.84438019 110.58623975 -92 109 C-83.48371208 107.77729422 -75.9198859 110.07047394 -68 113 C-66.96746094 113.37769531 -65.93492187 113.75539063 -64.87109375 114.14453125 C-52.97522217 118.8828387 -42.04197752 125.57750136 -31 132 C-29.9579541 132.60537598 -28.9159082 133.21075195 -27.84228516 133.83447266 C-24.70602006 135.65819751 -21.57151917 137.48491875 -18.4375 139.3125 C-16.92555054 140.19264771 -16.92555054 140.19264771 -15.38305664 141.09057617 C-11.13256081 143.568773 -6.89066532 146.05436735 -2.6953125 148.625 C3.58997811 152.4352286 8.52171354 155 16 155 C17.24930968 151.25207096 17.63434613 147.88570748 17 144 C14.37982605 138.84886446 10.59527363 135.63305131 5.75 132.5625 C5.12013184 132.15765381 4.49026367 131.75280762 3.84130859 131.33569336 C2.39829692 130.4106035 0.95122621 129.49182621 -0.49902344 128.578125 C-3.32383687 126.7956578 -6.13496513 124.99268663 -8.9453125 123.1875 C-13.25671814 120.41994972 -17.57182401 117.65833929 -21.890625 114.90234375 C-28.98194877 110.37543035 -36.06034494 105.82941999 -43.10742188 101.23388672 C-44.3576621 100.41877912 -45.6089467 99.60527091 -46.86132812 98.79345703 C-54.72040101 93.69089354 -62.37888629 88.35122791 -69.9375 82.8125 C-70.71851074 82.24233154 -71.49952148 81.67216309 -72.30419922 81.0847168 C-87.94712288 69.51710726 -87.94712288 69.51710726 -90 64 C-90.66822062 58.97565761 -90.60059444 55.20118889 -88.3125 50.625 C-81.7658523 43.19367018 -81.7658523 43.19367018 -77.21484375 42.875 C-51.46671854 44.28827617 -26.36346018 66.48098611 -7.90625 82.48828125 C-5.14232377 84.87699706 -2.33608108 87.19772154 0.5 89.5 C3.92998567 92.2896555 7.32312575 95.11449313 10.68432617 97.98608398 C13.44323967 100.3395791 16.21935065 102.67225346 19 105 C19.58749023 105.49387207 20.17498047 105.98774414 20.78027344 106.49658203 C31.64354486 116.1447366 31.64354486 116.1447366 45.16796875 120 C47.29803667 119.77025248 47.29803667 119.77025248 50 119 C50.54898851 110.63097509 45.73911267 105.25732318 40.54296875 99.078125 C35.08696262 93.03897327 29.33995787 87.30041001 23.55834961 81.57470703 C20.17473758 78.21386494 16.9500006 74.78272404 13.86328125 71.14453125 C11.85922765 68.83797899 9.78702508 66.60736907 7.70117188 64.375 C2.6901677 59.01005873 -2.11833635 53.55966472 -6.703125 47.8203125 C-8.38824098 45.75117349 -10.09313188 43.73947304 -11.859375 41.7421875 C-19.95458425 32.56735011 -24.25754119 26.23012115 -24.5 13.8125 C-24.52839966 12.652948 -24.52839966 12.652948 -24.55737305 11.4699707 C-24.49655885 6.2018696 -23.44326662 3.19264547 -20 -1 C-14.18666082 -5.41011938 -6.01086164 -2.84352209 0 0 Z " fill="#FFD11D" transform="translate(264,586)"/>
<path d="M0 0 C3.83656381 1.93945499 5.8698227 5.09511415 7.76953125 8.89453125 C8.9137459 24.95105155 5.25100486 34.40670295 -5.23046875 46.89453125 C-7.22009216 49.01630677 -9.25834405 51.05157175 -11.359375 53.0625 C-13.12241269 54.78873105 -14.70519035 56.57028186 -16.29296875 58.45703125 C-19.89162866 62.65408265 -23.80504893 66.50717149 -27.73046875 70.39453125 C-32.21423181 74.83486277 -36.58852342 79.27589172 -40.65234375 84.109375 C-42.44926708 86.14203333 -44.38648512 87.96574641 -46.35546875 89.83203125 C-50.69160204 94.10835581 -54.40344876 98.76054431 -58.10546875 103.58203125 C-58.66508301 104.30704834 -59.22469727 105.03206543 -59.80126953 105.77905273 C-65.21491263 112.34288749 -65.21491263 112.34288749 -67.04296875 120.20703125 C-66.34799297 122.09071587 -66.34799297 122.09071587 -64.23046875 122.89453125 C-57.54698973 123.72996613 -52.79805715 121.53050735 -47.23046875 117.89453125 C-43.39453746 114.73175782 -39.81741249 111.33429037 -36.23046875 107.89453125 C-34.35648604 106.21246243 -32.45811059 104.56266627 -30.5546875 102.9140625 C-28.69333799 101.29672183 -26.84471811 99.66741175 -25 98.03125 C32.4410291 47.33339933 32.4410291 47.33339933 59.45703125 46.14453125 C65.01886771 46.69112552 69.03142116 48.87608082 72.70703125 53.14453125 C74.42318056 57.58632947 74.5992179 61.51698833 73.04296875 65.9765625 C68.39816265 75.8514958 60.91665195 80.81179554 52.01953125 86.58203125 C50.79188167 87.3880471 49.56475294 88.1948568 48.33813477 89.00244141 C44.82335608 91.3123802 41.29780503 93.60525715 37.76953125 95.89453125 C36.46508057 96.74217041 36.46508057 96.74217041 35.13427734 97.60693359 C32.32691992 99.42923233 29.5171742 101.24773088 26.70336914 103.06005859 C8.65923377 114.68321297 -9.06867469 126.79480484 -26.35546875 139.51953125 C-27.02465332 140.00421875 -27.69383789 140.48890625 -28.38330078 140.98828125 C-32.79990657 144.19394703 -32.79990657 144.19394703 -35.23046875 148.89453125 C-35.29445519 151.72059881 -34.77456595 154.08336236 -34.23046875 156.89453125 C-33.57046875 157.55453125 -32.91046875 158.21453125 -32.23046875 158.89453125 C-27.3393276 158.59571413 -23.72784637 156.82993497 -19.453125 154.53515625 C-18.81391113 154.19460205 -18.17469727 153.85404785 -17.51611328 153.50317383 C-15.43700687 152.39219135 -13.36496464 151.26871095 -11.29296875 150.14453125 C-9.84392584 149.3663828 -8.39462315 148.58871792 -6.94506836 147.81152344 C1.3323401 143.36054753 9.54522751 138.80447264 17.70703125 134.14453125 C25.74552945 129.55995702 33.83949767 125.09718132 42.01953125 120.76953125 C43.03136475 120.22458008 44.04319824 119.67962891 45.08569336 119.11816406 C54.83259511 114.01598654 64.64201013 110.56287708 75.76953125 111.89453125 C79.06653303 113.19959446 80.34415471 114.38114577 82.58203125 117.08203125 C84.59328836 121.84553494 84.55679128 125.6307213 82.890625 130.421875 C78.78082004 139.44174397 73.37888168 143.24023758 64.65625 147.57421875 C63.95748749 147.92218506 63.25872498 148.27015137 62.53878784 148.62866211 C54.28952769 152.68763171 45.85111446 156.29389041 37.39453125 159.89453125 C27.90802233 163.95225269 18.42364105 168.01519714 8.9765625 172.1640625 C7.87140793 172.64365417 7.87140793 172.64365417 6.743927 173.13293457 C-0.88470418 176.50227148 -8.39371277 180.1481695 -12.23046875 187.89453125 C-12.01280508 191.59481361 -11.87555834 193.24944166 -9.23046875 195.89453125 C2.43744237 197.4164327 13.40235109 190.14950576 23.26953125 184.83203125 C29.59038659 181.43281571 35.98467608 178.1846021 42.39453125 174.95703125 C44.02962646 174.12377319 44.02962646 174.12377319 45.69775391 173.27368164 C63.53785558 164.312455 63.53785558 164.312455 72.76953125 165.89453125 C76.59421173 167.87769891 79.86020546 169.96980602 81.76953125 173.89453125 C82.55358887 177.8940171 82.56043835 181.32430542 80.703125 185.01171875 C74.62936719 193.51828963 66.53965452 199.0014183 57.33203125 203.64453125 C56.32615967 204.15693359 55.32028809 204.66933594 54.28393555 205.19726562 C51.1239409 206.78765526 47.9512117 208.34801784 44.76953125 209.89453125 C43.80337891 210.36439453 42.83722656 210.83425781 41.84179688 211.31835938 C17.56094506 222.93812713 -8.932034 232.03701536 -35.23046875 237.89453125 C-36.37781494 238.1560498 -36.37781494 238.1560498 -37.54833984 238.42285156 C-50.39933888 241.30983981 -63.32558001 243.0979783 -76.40722656 244.56982422 C-78.97425591 244.86506367 -81.53557047 245.18844452 -84.09765625 245.5234375 C-113.34821738 249.21001363 -148.37891324 249.11055238 -173.23046875 230.89453125 C-188.65509381 218.61634045 -200.99010449 200.64118054 -204.23046875 180.89453125 C-205.78487446 163.70855496 -201.42088038 148.26715444 -190.34814453 134.8515625 C-188.49277592 132.70540245 -186.60222613 130.59473454 -184.68798828 128.50097656 C-182.20638812 125.76581257 -179.81591206 122.95297262 -177.41796875 120.14453125 C-176.67571045 119.27622681 -176.67571045 119.27622681 -175.91845703 118.39038086 C-174.88893407 117.1849934 -173.8603062 115.97884093 -172.83251953 114.77197266 C-171.74551162 113.49810937 -170.65522747 112.22703588 -169.56201172 110.95849609 C-149.73820252 87.89768465 -134.56373895 62.26821294 -123.65136719 33.86010742 C-120.913735 26.88713313 -117.61746563 20.99121411 -112.04296875 15.89453125 C-107.43690886 14.25682107 -103.04852139 14.17075898 -98.23046875 14.89453125 C-91.90893647 18.40649363 -88.66395004 24.92986928 -86.68408203 31.78686523 C-83.93961375 44.53874611 -86.05539143 58.29573404 -92.73046875 69.39453125 C-98.22194027 77.06029099 -105.46637934 83.68634555 -112.73046875 89.64453125 C-116.43954927 92.8348051 -118.89309832 96.14359293 -120.23046875 100.89453125 C-120.23046875 104.89818336 -119.90216059 106.97406465 -117.54296875 110.20703125 C-112.41139208 113.95169531 -108.00203497 114.07108135 -101.890625 113.57421875 C-95.86140014 112.03371196 -92.0423149 109.44263971 -88.82348633 104.12695312 C-88.46279053 103.49337891 -88.10209473 102.85980469 -87.73046875 102.20703125 C-87.32014404 101.52060547 -86.90981934 100.83417969 -86.48706055 100.12695312 C-85.56543195 98.58188473 -84.65138478 97.03227704 -83.74365234 95.47900391 C-80.88339343 90.5937666 -77.95576104 85.74855963 -75.04296875 80.89453125 C-74.09333252 79.30717163 -74.09333252 79.30717163 -73.12451172 77.68774414 C-48.5349944 36.64245018 -48.5349944 36.64245018 -34.23046875 19.89453125 C-33.42222656 18.88132812 -32.61398437 17.868125 -31.78125 16.82421875 C-24.6896453 8.20336899 -12.10877234 -2.84776099 0 0 Z " fill="#FFD11D" transform="translate(778.23046875,583.10546875)"/>
<path d="M0 0 C13.06693799 0.23030514 26.57692152 8.2598121 38.125 13.75 C68.81048008 28.33154486 101.77148242 39.73979456 135.875 29.375 C136.6184668 29.1598877 137.36193359 28.94477539 138.12792969 28.72314453 C155.80965378 23.54929082 172.347617 15.73802988 188.75 7.4375 C207.64901971 -2.06914111 207.64901971 -2.06914111 215.875 0.375 C220.77953857 5.90832556 220.57905401 11.25784727 220.3203125 18.28125 C218.47039431 44.40746885 209.22664248 70.59719866 191.875 90.375 C191.43720215 90.87837891 190.9994043 91.38175781 190.54833984 91.90039062 C185.71741583 97.42813073 181.15383524 102.48985561 174.875 106.375 C174.32972656 105.54097656 173.78445313 104.70695313 173.22265625 103.84765625 C163.83395116 89.72354013 150.80715757 76.16904461 133.875 71.375 C130.24803341 70.63101291 130.24803341 70.63101291 126.875 72.375 C123.18682375 76.52419828 120.28207779 81.1919602 117.28125 85.84765625 C114.81622331 89.45996929 113.51478064 91.11223295 109.375 92.8125 C105.875 92.375 105.875 92.375 103 89.8125 C101.03753554 87.25503301 99.39322528 84.57377879 97.78125 81.7890625 C97.40468262 81.15685791 97.02811523 80.52465332 96.64013672 79.87329102 C95.88930083 78.59847779 95.16590385 77.30703847 94.47314453 75.99975586 C93.32854415 73.9054751 93.32854415 73.9054751 90.875 71.375 C84.71189044 70.36153902 80.46854367 71.94101883 75.0625 74.8125 C74.370354 75.17085937 73.67820801 75.52921875 72.96508789 75.8984375 C59.9794234 82.86025925 50.77705505 92.55659305 43.55078125 105.25 C42.99777344 105.95125 42.44476563 106.6525 41.875 107.375 C37.04486628 107.375 36.46968592 106.52652262 33.0625 103.3125 C32.18078125 102.48105469 31.2990625 101.64960937 30.390625 100.79296875 C29.56046875 99.99503906 28.7303125 99.19710937 27.875 98.375 C26.93914062 97.53388672 26.93914062 97.53388672 25.984375 96.67578125 C5.67441518 77.83686992 -6.08138425 45.85635436 -7.2890625 18.68359375 C-7.53767491 7.12311658 -7.53767491 7.12311658 -4.125 1.375 C-3.125 0.375 -3.125 0.375 0 0 Z " fill="#33353C" transform="translate(402.125,491.625)"/>
<path d="M0 0 C2.8478711 3.02819481 4.86278411 6.45078081 7 10 C8.27749001 11.86396247 9.5686209 13.71866962 10.875 15.5625 C11.44992187 16.38878906 12.02484375 17.21507812 12.6171875 18.06640625 C13.85695643 19.91156766 13.85695643 19.91156766 15 21 C19.60194361 20.98187025 19.60194361 20.98187025 23.44677734 18.68164062 C24.80093 16.92417814 26.00689375 15.12832363 27.1875 13.25 C28.01314467 12.00442651 28.83994997 10.75962152 29.66796875 9.515625 C31.08252283 7.38949345 32.47957253 5.25600907 33.86328125 3.109375 C36 1 36 1 39.26171875 -0.02734375 C43.92680267 0.00677912 46.76853952 1.25485854 50.8125 3.4375 C51.51246094 3.80294922 52.21242188 4.16839844 52.93359375 4.54492188 C58.8539194 7.72900846 64.04480049 11.44657342 69 16 C69.70511719 16.63679687 70.41023437 17.27359375 71.13671875 17.9296875 C76.14785607 22.68310919 80.57786144 27.97917496 84 34 C84 34.99 84 35.98 84 37 C64.79031498 55.23996535 33.97403114 59.66612824 8.79296875 59.18359375 C-12.74978394 58.50043772 -32.20692852 50.86204766 -50 39 C-44.17454204 22.41747947 -29.95364336 10.8948057 -14.875 3.0625 C-5.17126356 -1.54230668 -5.17126356 -1.54230668 0 0 Z " fill="#FD333C" transform="translate(493,562)"/>
<path d="M0 0 C12.50923936 7.42327059 20.67858202 17.43113049 24.61328125 31.55078125 C25.50250717 41.24954772 25.16545818 50.72742596 20.61328125 59.55078125 C18.05343854 62.59253767 17.23600057 63.4469947 13.23828125 64.11328125 C9.05975545 63.93330729 5.50563577 62.51353975 1.61328125 61.05078125 C-5.73313685 58.2401551 -5.73313685 58.2401551 -13.38671875 58.55078125 C-19.22355377 61.77469012 -22.7517235 67.56865135 -26.39453125 72.96484375 C-28.50208545 75.70053175 -30.53133417 77.61400692 -33.38671875 79.55078125 C-39.91812849 79.79724954 -43.69705172 76.62875258 -48.38671875 72.55078125 C-49.30324219 71.7928125 -49.30324219 71.7928125 -50.23828125 71.01953125 C-57.81158091 64.21357033 -61.99158431 54.82758893 -62.625 44.765625 C-62.97979704 31.14810102 -60.61982057 20.10289762 -51.38671875 9.55078125 C-38.2710494 -3.36310857 -16.79128431 -8.24468317 0 0 Z " fill="#33353C" transform="translate(416.38671875,353.44921875)"/>
<path d="M0 0 C1.41703593 1.03405325 2.81432903 2.09586892 4.1875 3.1875 C4.80238281 3.66574219 5.41726563 4.14398438 6.05078125 4.63671875 C13.23214776 10.95823206 18.71800664 21.85318801 19.42578125 31.40234375 C19.72109245 46.21453186 16.06175842 58.06398714 5.75 69 C1.75787896 72.78108381 -2.13693996 75.84192167 -7.74609375 76.56640625 C-11.76840534 76.06938176 -12.75209937 74.76740221 -15.3125 71.6875 C-16.08078125 70.77871094 -16.8490625 69.86992187 -17.640625 68.93359375 C-19.5064784 66.57443019 -21.30133507 64.18748857 -23.0625 61.75 C-25.37191475 58.64986172 -27.03987475 56.47362224 -30.8125 55.1875 C-36.54117337 54.95454101 -41.5763872 56.35226096 -46.9375 58.25 C-55.67840647 61.2683618 -55.67840647 61.2683618 -60.8125 60.1875 C-67.2003043 53.84870699 -68.02211839 44.90057059 -68.1875 36.375 C-68.16584455 25.33709125 -64.55083845 16.81126162 -57.8125 8.1875 C-57.33425781 7.57132812 -56.85601563 6.95515625 -56.36328125 6.3203125 C-42.19125209 -9.74370041 -17.41801474 -10.93757491 0 0 Z " fill="#33353C" transform="translate(639.8125,356.8125)"/>
<path d="M0 0 C6.72722565 4.21195765 13.38766658 11.81287677 15.5 19.5625 C16.64022987 28.91000944 15.42514257 36.12170832 9.921875 43.75 C5.4603508 49.216372 0.58878654 53.1904768 -6.5 54.5625 C-16.71250403 55.39645281 -24.05095727 54.13076833 -32.25 47.9375 C-38.14043959 42.56761088 -41.12808199 34.80236533 -41.8125 27 C-41.65935868 18.77631109 -38.23254019 11.1343727 -32.51953125 5.2890625 C-23.83547145 -2.13522073 -10.79390513 -4.60767492 0 0 Z " fill="#FFAD03" transform="translate(728.5,397.4375)"/>
<path d="M0 0 C6.9570141 4.69598452 10.38860487 10.16581462 13 18 C13.84445833 27.27697794 13.14520436 34.16253754 8 42 C7.4225 42.928125 6.845 43.85625 6.25 44.8125 C-1.00401845 51.86501794 -8.89397855 53.36194405 -18.66796875 53.28515625 C-25.30386278 52.71725442 -31.3503392 49.77532731 -36 45 C-42.29339137 35.65993016 -44.0001592 28.19718465 -43 17 C-40.48279615 9.07588743 -34.17739351 2.38756327 -26.875 -1.4375 C-18.50571089 -4.75093869 -7.96040922 -4.2515822 0 0 Z " fill="#FFAD03" transform="translate(325,399)"/>
</svg>
