<svg version="1.1" id="Layer_1" xmlns="http://www.w3.org/2000/svg" xmlns:xlink="http://www.w3.org/1999/xlink" x="0px" y="0px"
	 width="100%" viewBox="0 0 572 482" enable-background="new 0 0 572 482" xml:space="preserve">
<path fill="#000000" opacity="1.000000" stroke="none" 
	d="
M351.000000,483.000000 
	C234.027603,483.000000 117.555222,483.000000 1.041414,483.000000 
	C1.041414,322.399017 1.041414,161.798035 1.041414,1.098528 
	C191.555740,1.098528 382.111542,1.098528 572.833679,1.098528 
	C572.833679,161.666534 572.833679,322.333252 572.833679,483.000000 
	C499.131317,483.000000 425.315643,483.000000 351.000000,483.000000 
M265.000824,232.499344 
	C265.000824,238.826981 265.000824,245.154617 265.000824,252.269257 
	C243.644547,240.618164 222.672379,229.176620 201.489563,217.620148 
	C200.878845,218.784607 200.059052,219.620270 200.061111,220.453918 
	C200.087891,231.247223 199.768112,242.077484 200.630875,252.810394 
	C200.886459,255.989807 203.876770,260.074066 206.768311,261.740112 
	C231.301971,275.875946 256.112610,289.530518 280.816162,303.372314 
	C287.071228,306.877167 292.924225,306.259430 298.973724,302.617981 
	C310.661987,295.582245 322.405090,288.617340 334.377411,282.084778 
	C338.670776,279.742126 340.138580,277.049835 340.107269,272.222870 
	C339.899811,240.237549 340.015686,208.250198 339.969971,176.263580 
	C339.966278,173.676254 340.204681,171.845795 342.985138,170.351364 
	C351.902161,165.558685 360.613861,160.376709 369.325745,155.211655 
	C377.949493,150.098877 386.384094,144.414810 389.128296,134.134140 
	C390.494904,129.014313 389.420837,123.292732 390.101318,117.925827 
	C390.761902,112.715561 388.168030,110.138351 384.096436,107.993835 
	C356.927917,93.684151 329.738617,79.411613 302.711426,64.838898 
	C299.595245,63.158703 297.502716,63.525074 294.882996,65.010254 
	C287.051605,69.450012 279.208710,73.870461 271.329895,78.225319 
	C250.916840,89.508224 230.486832,100.760498 210.053085,112.005905 
	C204.260223,115.193932 198.840698,118.442993 198.949997,126.380730 
	C199.140335,140.205658 198.899277,154.036835 199.129623,167.860565 
	C199.158295,169.580948 200.528549,171.987045 201.999069,172.861633 
	C212.376801,179.033890 222.929871,184.912613 233.453629,190.837708 
	C243.107468,196.273010 252.856216,201.544647 262.397339,207.169662 
	C263.747040,207.965393 264.811127,210.326782 264.885468,212.012955 
	C265.171387,218.497635 265.001007,225.002426 265.000824,232.499344 
M184.000977,129.500549 
	C184.000977,124.169388 184.174347,118.830574 183.939346,113.509789 
	C183.785538,110.027153 185.240280,108.286392 188.244415,106.643341 
	C204.550644,97.724998 220.702972,88.525658 236.925049,79.453049 
	C255.774033,68.911278 274.701630,58.507622 293.444336,47.780571 
	C296.946747,45.776035 299.595490,45.904953 302.825165,47.896618 
	C305.546173,49.574589 308.635406,50.641716 311.462921,52.162727 
	C338.502777,66.708351 365.408325,81.509163 392.601349,95.761826 
	C403.729614,101.594490 409.450500,109.771645 407.979889,122.460640 
	C407.794128,124.063576 407.240601,125.623619 407.051056,127.226425 
	C405.283325,142.176346 400.535492,155.546906 387.761414,164.909088 
	C386.705475,165.682999 386.077026,167.704025 386.071533,169.148743 
	C385.972168,195.304352 386.032013,221.460541 385.966095,247.616379 
	C385.955322,251.884460 387.576416,253.232544 391.360077,251.141708 
	C398.390869,247.256454 405.229584,243.011948 412.346832,239.297424 
	C423.422180,233.517151 427.308777,224.529526 427.159912,212.224808 
	C426.716644,175.578522 427.032867,138.923370 426.955750,102.271873 
	C426.947144,98.184013 426.896240,93.937943 425.824036,90.052498 
	C424.608612,85.648132 423.074951,81.250175 418.339722,78.663841 
	C397.495422,67.278908 376.801086,55.619633 356.041290,44.079765 
	C340.594604,35.493324 325.209290,26.791096 309.632446,18.446995 
	C304.126190,15.497446 298.331757,12.580556 292.313629,11.218608 
	C284.641876,9.482433 278.202545,14.359580 271.802643,17.815561 
	C251.716354,28.662258 231.768311,39.764603 211.733200,50.706547 
	C195.745529,59.438042 179.681824,68.030487 163.708008,76.787048 
	C157.836426,80.005730 154.323746,85.176865 154.070541,91.826828 
	C153.494980,106.942963 153.164322,122.075211 153.132523,137.201752 
	C153.120758,142.793777 155.532455,147.839859 160.479813,150.894699 
	C167.395706,155.165024 174.543839,159.060547 181.625580,163.057983 
	C182.094299,163.322571 182.842209,163.092484 184.000977,163.092484 
	C184.000977,152.077850 184.000977,141.289078 184.000977,129.500549 
M292.111084,357.263763 
	C292.754272,361.133240 292.652252,365.327515 294.172241,368.814789 
	C300.092072,382.396149 309.200073,392.995575 324.284821,396.641541 
	C339.867157,400.407806 354.451599,397.415710 365.827087,386.153503 
	C377.237823,374.856415 381.434326,360.529724 376.954987,344.558746 
	C370.859100,322.823914 351.221741,308.348846 328.331726,312.335175 
	C305.662445,316.283051 293.379211,333.232117 292.111084,357.263763 
M106.431465,312.995728 
	C102.602821,312.344055 98.761093,311.071686 94.947868,311.152008 
	C81.046738,311.444855 68.850906,316.198914 60.212807,327.455414 
	C51.764355,338.464783 47.772617,351.105286 51.121639,364.932098 
	C53.860893,376.241425 60.188721,385.515808 70.129593,392.013641 
	C77.207314,396.639954 85.198494,399.511078 93.399086,398.712738 
	C100.919991,397.980560 108.439445,395.400452 115.503517,392.517303 
	C119.541206,390.869293 124.573418,388.088440 124.832718,382.948120 
	C125.380615,372.086731 124.999527,361.178467 124.999527,350.252289 
	C115.432968,350.252289 106.354530,350.252289 96.999550,350.252289 
	C96.999550,353.471313 97.175125,356.454132 96.953613,359.407166 
	C96.696289,362.837646 97.868553,364.196991 101.461327,364.061462 
	C110.101288,363.735382 108.951820,363.636780 108.992432,372.008270 
	C109.022469,378.198303 107.174911,380.758087 101.923553,381.982056 
	C96.287903,383.295624 90.827354,383.401917 85.289337,381.047058 
	C72.172218,375.469360 64.656662,360.396881 69.636108,346.928772 
	C76.306030,328.888428 93.319542,325.136322 108.120659,332.041046 
	C115.074089,335.284790 115.554153,335.286133 119.950172,329.000000 
	C120.321220,328.469421 120.619843,327.862854 121.077988,327.422546 
	C124.609016,324.029388 123.219910,321.102081 119.805916,319.092468 
	C115.818161,316.745117 111.472961,315.005005 106.431465,312.995728 
M396.998749,369.502930 
	C396.998749,384.582153 396.998749,399.661346 396.998749,415.033325 
	C401.721832,415.033325 406.042847,414.280548 409.943024,415.239441 
	C414.058563,416.251282 414.023254,414.467621 414.009796,411.677826 
	C413.981537,405.821320 414.001221,399.964600 414.001221,394.894196 
	C420.340027,395.961060 426.131195,398.061859 431.743500,397.660706 
	C446.251953,396.623688 456.332428,388.490753 461.744263,375.128082 
	C467.351929,361.281769 462.807861,344.518768 453.874481,336.656372 
	C444.457733,328.368530 433.043396,325.883545 420.942047,329.148560 
	C410.052307,332.086731 401.349640,338.479218 398.342133,349.825165 
	C396.770569,355.753876 397.376373,362.259735 396.998749,369.502930 
M197.577148,343.163483 
	C195.864304,340.792297 194.505753,338.028015 192.381317,336.113556 
	C178.229233,323.360016 155.756485,329.122223 146.898972,341.135742 
	C140.961075,349.189362 140.984558,358.068848 140.913116,367.292786 
	C140.843689,376.253906 144.658936,383.365204 151.000031,388.904999 
	C164.697403,400.871399 179.403549,400.937927 195.328064,393.340698 
	C197.784607,392.168701 198.795197,390.666107 197.616119,388.391418 
	C196.140457,385.544617 194.718048,382.107513 192.248138,380.552460 
	C190.795303,379.637787 187.373199,381.945557 184.801422,382.680084 
	C183.092743,383.168091 181.332077,383.500244 179.576523,383.793457 
	C170.843079,385.252045 158.954620,379.431732 158.148254,368.394470 
	C172.365814,368.394470 186.523941,368.394470 202.311768,368.394470 
	C200.711426,359.427582 199.322098,351.643097 197.577148,343.163483 
M258.999481,359.728760 
	C258.999481,372.134583 258.999481,384.540375 258.999481,397.000519 
	C263.214905,397.000519 266.726898,396.793823 270.203369,397.056763 
	C273.917542,397.337677 275.132446,395.996613 275.075348,392.245911 
	C274.880157,379.424042 274.418274,366.563812 275.154327,353.781372 
	C275.992096,339.233246 264.196350,325.961334 246.677338,330.046997 
	C241.868591,331.168396 237.221893,332.984711 232.261856,334.557983 
	C232.085022,333.605927 231.843948,332.307922 231.652161,331.275360 
	C226.256561,331.275360 221.322037,331.275360 215.999466,331.275360 
	C215.999466,349.835022 215.888657,368.122345 216.038101,386.407532 
	C216.139023,398.754181 213.439240,396.827576 227.444519,396.990509 
	C231.272415,397.035034 233.149673,394.963257 232.964645,391.234924 
	C232.803116,387.979706 232.007812,384.734192 232.063339,381.494141 
	C232.213303,372.744751 232.470978,363.986755 233.085724,355.260315 
	C233.383881,351.027802 235.512009,347.319153 239.904053,346.099274 
	C251.035400,343.007568 258.062256,344.895050 258.999481,359.728760 
M516.213745,345.431000 
	C520.194275,347.477386 522.630371,345.357971 523.816284,341.977692 
	C524.691040,339.484314 526.902588,336.164673 523.085693,334.127655 
	C511.799622,328.104492 500.191833,326.383118 488.142334,332.019043 
	C476.751831,337.346710 476.349884,352.553650 483.542694,359.885651 
	C486.144714,362.537994 489.299194,364.749054 492.479980,366.709839 
	C497.461884,369.780823 502.812744,372.263885 507.717010,375.443695 
	C509.166412,376.383484 510.847076,379.622040 510.318146,380.429932 
	C509.037872,382.385376 506.622742,384.599426 504.480164,384.807678 
	C496.960327,385.538666 489.809052,384.147766 483.947601,377.507935 
	C481.662415,380.403412 479.659454,383.176697 477.405457,385.728210 
	C475.326599,388.081482 475.861725,390.173553 478.194275,391.416168 
	C483.151672,394.056976 488.108948,397.238281 493.464417,398.477722 
	C504.217072,400.966278 514.426025,398.621185 522.434448,390.681732 
	C530.856995,382.331726 527.612488,366.825623 516.684937,361.153046 
	C510.963898,358.183197 505.123077,355.422882 499.559296,352.184814 
	C498.016907,351.287140 496.098450,348.692200 496.441620,347.455750 
	C496.937836,345.667633 499.352295,343.139893 500.922119,343.158356 
	C505.781708,343.215668 510.628845,344.327972 516.213745,345.431000 
M485.263000,429.126343 
	C483.345520,428.763519 481.337738,427.861847 479.531769,428.164459 
	C476.840973,428.615326 474.392090,430.109955 471.573059,428.193420 
	C471.184143,427.928986 468.209045,429.923004 468.162170,430.950439 
	C467.846313,437.871857 467.997589,444.814575 467.997589,452.055328 
	C470.337524,451.944244 472.058868,451.862549 474.006165,451.770111 
	C474.006165,447.162567 474.002899,443.018799 474.006927,438.875031 
	C474.012817,432.798615 474.015045,432.798615 481.017670,433.277679 
	C481.017670,437.857574 481.167175,442.485504 480.974060,447.099060 
	C480.794495,451.389191 482.495087,452.865631 487.006165,451.489441 
	C487.006165,447.948334 487.005859,444.316498 487.006226,440.684662 
	C487.007019,433.484589 487.419312,433.099640 495.042236,433.490845 
	C495.042236,435.776978 495.046234,438.089905 495.041168,440.402802 
	C495.035706,442.898682 494.635559,445.478455 495.152893,447.859680 
	C495.475586,449.344818 497.178192,450.530121 498.261505,451.849976 
	C499.176300,450.618774 500.779663,449.440918 500.879944,448.146606 
	C501.213196,443.845764 501.076355,439.501587 500.988983,435.176697 
	C500.870667,429.321533 496.465607,426.553375 490.885559,428.603119 
	C489.324890,429.176453 487.593170,429.284210 485.263000,429.126343 
M296.880920,444.381897 
	C298.009918,446.506561 298.936432,448.783508 300.364655,450.683136 
	C300.960876,451.476074 302.624237,451.466614 303.802338,451.822021 
	C304.015411,450.705139 304.714447,449.400055 304.366119,448.500549 
	C300.991699,439.785858 297.555725,431.089264 293.813477,422.529114 
	C293.276398,421.300598 290.992584,420.148254 289.566193,420.204498 
	C288.332733,420.253082 286.664398,421.838776 286.065765,423.146637 
	C283.983612,427.695923 282.175110,432.380707 280.467194,437.088196 
	C278.728668,441.880310 277.231995,446.760193 275.629395,451.601654 
	C276.059753,451.926117 276.490112,452.250610 276.920471,452.575104 
	C278.930664,451.135681 281.518036,450.095459 282.841949,448.181396 
	C286.684662,442.625641 288.954926,441.667755 296.880920,444.381897 
M57.375843,443.900299 
	C53.652977,437.967285 54.699230,431.532471 59.406796,427.840485 
	C62.672455,425.279297 68.712143,426.255188 74.511375,425.525024 
	C73.772697,424.455475 72.804337,421.751465 71.716194,421.702362 
	C66.906960,421.485352 61.429874,420.681702 57.365906,422.587799 
	C49.280067,426.380219 47.593327,437.490082 52.811665,445.298767 
	C56.444954,450.735596 63.262566,453.254425 69.178848,451.345856 
	C74.662094,449.576965 75.376335,448.333862 74.883835,439.302643 
	C74.803307,437.825928 73.395569,435.456268 72.224922,435.196747 
	C69.418617,434.574585 66.389305,434.964233 64.909081,437.547699 
	C66.939606,439.075012 69.282402,439.950195 69.771645,441.435791 
	C70.348099,443.186157 69.812050,446.911957 68.887985,447.226837 
	C66.669838,447.982635 63.885899,447.514526 61.444233,446.999725 
	C60.158798,446.728699 59.112545,445.323212 57.375843,443.900299 
M339.338440,450.500977 
	C339.711670,447.793365 340.084900,445.085785 340.510651,441.997040 
	C342.123169,441.997040 343.600983,442.117554 345.053223,441.975922 
	C351.009918,441.395050 355.670166,437.721222 356.000183,433.443024 
	C356.469452,427.360138 353.220642,422.314026 347.188354,421.265228 
	C343.062683,420.547913 338.711426,421.127869 333.999268,421.127869 
	C333.999268,430.505493 333.968384,439.759460 334.013550,449.013062 
	C334.033386,453.074707 336.264221,452.250244 339.338440,450.500977 
M372.769165,440.664825 
	C372.527100,441.956421 372.151337,443.239288 372.065979,444.541138 
	C371.679443,450.435303 373.546722,452.397095 379.386230,452.158447 
	C382.682800,452.023773 385.971252,451.690155 390.358215,451.364960 
	C390.067780,445.498596 390.085388,439.218903 389.250092,433.054779 
	C389.001892,431.223328 386.477814,428.477264 384.786011,428.312469 
	C380.963013,427.940125 376.383484,426.252258 373.439514,430.650513 
	C373.103455,431.152588 373.393982,432.074066 373.393982,432.760529 
	C376.920319,433.071106 380.742279,431.334900 382.749146,434.322083 
	C379.030029,436.498627 376.081665,438.224091 372.769165,440.664825 
M427.643555,446.558014 
	C430.112030,450.992859 434.064026,452.512177 438.824493,451.774200 
	C444.696259,450.863953 446.470856,446.544464 447.160431,441.267914 
	C448.000641,434.838684 444.658813,430.102692 437.620331,428.256012 
	C433.239441,427.106598 428.645172,429.760803 427.134155,435.423462 
	C426.264587,438.682251 427.111847,442.399200 427.643555,446.558014 
M171.308289,441.135437 
	C168.726135,444.247864 169.493210,447.664185 171.784897,450.036255 
	C174.959579,453.322266 178.915207,452.449768 181.941757,450.527863 
	C184.191208,451.051453 185.919800,451.606598 187.680450,451.740601 
	C188.053207,451.768982 188.970291,450.225677 188.912155,449.461609 
	C188.401352,442.750610 187.726395,436.052124 187.064240,428.966492 
	C181.667786,429.717987 175.393387,424.268158 171.693069,432.214478 
	C175.141373,434.777954 180.487167,428.331451 181.970963,434.242432 
	C178.224396,436.621429 175.067596,438.625916 171.308289,441.135437 
M98.045586,435.418671 
	C97.018875,431.671692 95.119919,429.041870 90.733376,428.972534 
	C81.945778,428.833649 79.989113,430.963318 79.999023,441.020386 
	C80.007431,449.553680 89.372536,454.969360 96.764091,450.601562 
	C97.566246,450.127563 97.741562,448.592743 98.257057,447.439392 
	C92.932762,445.897034 85.651237,450.168304 84.553596,441.336426 
	C88.127701,440.899811 91.797707,440.277985 95.491722,440.056244 
	C98.342613,439.885132 99.022049,438.513580 98.045586,435.418671 
M135.709274,441.856049 
	C138.929993,441.570496 142.220535,441.585968 145.339706,440.862579 
	C146.736557,440.538635 148.596649,438.894562 148.860352,437.572968 
	C150.038452,431.668488 145.104309,428.601868 141.044586,428.040009 
	C135.297699,427.244690 130.636215,430.488464 130.128418,436.012421 
	C129.837326,439.179047 130.259933,442.563538 131.101303,445.648071 
	C132.542435,450.931366 143.049835,453.821869 147.156830,450.218231 
	C147.793884,449.659271 147.761703,448.337555 148.144379,447.000305 
	C145.412781,447.000305 143.236435,446.788330 141.117691,447.047455 
	C137.471069,447.493500 135.562881,445.983856 135.709274,441.856049 
M412.990082,441.605682 
	C412.994812,444.264221 412.617004,447.009338 413.189697,449.539307 
	C413.423767,450.573273 415.661865,451.575348 417.091705,451.751221 
	C417.888916,451.849274 419.647766,450.255798 419.689392,449.364685 
	C419.937836,444.041962 419.812378,438.701752 419.812378,434.207092 
	C421.430176,432.527527 422.840942,431.062866 424.251740,429.598206 
	C422.616730,428.387726 420.981750,427.177246 418.148438,425.079590 
	C421.267609,424.017670 423.929993,423.111298 427.509094,421.892792 
	C426.692993,420.830658 426.040833,419.156342 424.856781,418.585938 
	C420.099945,416.294067 415.618378,418.405243 413.975067,423.437866 
	C413.191498,425.837585 412.481537,428.261322 411.738251,430.674164 
	C412.710388,432.362732 412.987793,434.273163 413.090576,436.192932 
	C413.170227,437.680756 413.031677,439.180206 412.990082,441.605682 
M116.456436,433.000183 
	C117.304291,433.983185 118.831734,434.931030 118.884666,435.955109 
	C119.140572,440.906036 119.000000,445.877411 119.000000,450.718933 
	C123.034492,451.672577 124.200928,450.037994 124.040352,446.585571 
	C123.862679,442.765594 124.062027,438.929749 123.984207,435.103058 
	C123.884209,430.186066 118.861954,426.924591 114.172180,428.257812 
	C111.443947,429.033417 108.487305,429.005493 104.710159,429.447083 
	C104.710159,435.693512 104.710159,443.275452 104.710159,451.032959 
	C105.980522,450.969421 107.385490,450.899109 108.999817,450.818359 
	C108.999817,446.794922 108.999283,443.154053 108.999924,439.513184 
	C109.001083,433.008484 109.001389,433.008484 116.456436,433.000183 
M246.508347,429.950165 
	C245.389664,431.049255 243.666824,431.957550 243.249695,433.278259 
	C240.405396,442.283478 245.104599,452.709930 256.660004,450.889374 
	C258.027313,450.673920 259.152649,448.922943 260.390167,447.883728 
	C258.987091,447.593750 257.499146,446.849182 256.195587,447.092438 
	C250.547272,448.146545 248.624619,446.816223 248.380661,440.982025 
	C250.541061,440.982025 252.697632,441.076050 254.841888,440.954041 
	C256.769165,440.844391 258.682953,440.497559 260.727905,440.239532 
	C261.752838,429.649200 256.618256,425.374908 246.508347,429.950165 
M201.001587,443.007080 
	C201.001587,439.866089 201.001587,436.725067 201.001587,434.675629 
	C203.311005,432.612335 205.018402,431.086945 206.725800,429.561523 
	C206.523529,429.129944 206.321243,428.698395 206.118973,428.266846 
	C202.338226,428.032410 199.342026,427.299530 201.679764,422.677856 
	C201.919388,422.204102 201.469269,420.828278 201.064697,420.693176 
	C200.125351,420.379547 198.382706,420.164032 198.089279,420.624573 
	C196.843201,422.580444 196.006744,424.797272 194.716461,427.573303 
	C194.066147,427.722748 192.526413,428.076599 189.747452,428.715240 
	C191.546661,430.911407 192.832108,432.480469 195.003159,435.130524 
	C195.003159,438.142975 194.980133,442.772858 195.009796,447.402405 
	C195.037949,451.797821 198.700684,451.521240 201.392303,451.764038 
	C202.132462,451.830811 203.833847,449.153259 203.785995,447.780609 
	C203.739746,446.453796 202.007309,445.185791 201.001587,443.007080 
M233.969330,448.121155 
	C235.911209,441.850922 237.853088,435.580719 239.761337,429.419098 
	C236.175751,427.905945 234.319687,429.146698 233.438217,432.638580 
	C232.623978,435.864197 231.464371,439.002625 230.395294,442.373566 
	C226.023560,437.734283 227.361954,429.032471 218.728409,427.386261 
	C221.087234,435.060669 223.732483,442.624420 227.271622,449.743805 
	C229.183289,453.589386 231.783569,451.116272 233.969330,448.121155 
M403.012848,426.515717 
	C402.387634,423.312347 400.149200,423.311462 398.220032,424.731720 
	C395.571533,426.681488 393.349182,429.209991 390.152588,432.241180 
	C393.178741,432.783966 394.988708,433.108612 396.996216,433.468719 
	C396.996216,437.716248 396.737579,441.716034 397.101837,445.658264 
	C397.293152,447.728760 398.045288,450.696564 399.495667,451.466278 
	C401.396729,452.475189 404.237335,451.713715 405.646240,451.713715 
	C404.369812,445.188019 403.270966,439.570312 402.364166,434.934265 
	C404.982666,432.835571 406.483734,431.632477 407.984802,430.429413 
	C406.567047,429.659363 405.138123,428.908600 403.741425,428.102112 
	C403.479248,427.950714 403.345612,427.576721 403.012848,426.515717 
M361.031342,420.867340 
	C361.031342,430.951019 361.031342,441.034698 361.031342,451.082031 
	C363.347656,451.082031 365.095703,451.082031 366.231934,451.082031 
	C366.231934,440.577667 366.231934,430.386505 366.231934,420.073669 
	C364.145111,420.073669 362.830719,420.073669 361.031342,420.867340 
M464.183472,429.025269 
	C459.871521,428.742126 455.559601,428.459015 451.217346,428.173889 
	C451.217346,436.228821 451.217346,443.990112 451.217346,451.735718 
	C452.849152,451.735718 454.255554,451.735718 455.771881,451.735718 
	C456.180634,447.436157 456.737518,443.388641 456.900879,439.325287 
	C457.049408,435.630951 457.049927,432.302338 462.329681,432.777893 
	C462.957092,432.834412 467.922272,433.404968 464.183472,429.025269 
M316.109406,421.257385 
	C314.468475,421.131592 312.827545,421.005829 310.659912,420.839661 
	C310.659912,431.439148 310.659912,441.319061 310.659912,451.599487 
	C312.203156,451.599487 314.003632,451.599487 316.438995,451.599487 
	C316.438995,441.614655 316.438995,431.844788 316.109406,421.257385 
M154.000168,433.812347 
	C154.012405,438.289856 153.881012,442.774109 154.089783,447.242432 
	C154.218704,450.001801 155.298630,452.130371 158.649063,450.659668 
	C160.877319,443.661682 153.580200,432.515991 168.436508,430.775696 
	C166.605972,429.274872 165.198151,428.085052 163.850357,428.149597 
	C160.892105,428.291229 157.964249,429.067719 154.197739,429.730347 
	C154.174454,430.104340 154.087311,431.504700 154.000168,433.812347 
M215.999939,446.319458 
	C215.999939,440.694916 215.999939,435.070343 215.999939,429.121185 
	C213.976730,428.978668 212.266235,428.858215 210.054031,428.702393 
	C210.054031,436.367310 210.054031,443.577698 210.054031,451.025269 
	C211.883682,451.328033 213.759399,451.638428 215.999924,452.009186 
	C215.999924,450.228729 215.999924,448.748962 215.999939,446.319458 
z"/>
<path fill="#FFFFFF" opacity="1.000000" stroke="none" 
	d="
M265.000793,231.999542 
	C265.001007,225.002426 265.171387,218.497635 264.885468,212.012955 
	C264.811127,210.326782 263.747040,207.965393 262.397339,207.169662 
	C252.856216,201.544647 243.107468,196.273010 233.453629,190.837708 
	C222.929871,184.912613 212.376801,179.033890 201.999069,172.861633 
	C200.528549,171.987045 199.158295,169.580948 199.129623,167.860565 
	C198.899277,154.036835 199.140335,140.205658 198.949997,126.380730 
	C198.840698,118.442993 204.260223,115.193932 210.053085,112.005905 
	C230.486832,100.760498 250.916840,89.508224 271.329895,78.225319 
	C279.208710,73.870461 287.051605,69.450012 294.882996,65.010254 
	C297.502716,63.525074 299.595245,63.158703 302.711426,64.838898 
	C329.738617,79.411613 356.927917,93.684151 384.096436,107.993835 
	C388.168030,110.138351 390.761902,112.715561 390.101318,117.925827 
	C389.420837,123.292732 390.494904,129.014313 389.128296,134.134140 
	C386.384094,144.414810 377.949493,150.098877 369.325745,155.211655 
	C360.613861,160.376709 351.902161,165.558685 342.985138,170.351364 
	C340.204681,171.845795 339.966278,173.676254 339.969971,176.263580 
	C340.015686,208.250198 339.899811,240.237549 340.107269,272.222870 
	C340.138580,277.049835 338.670776,279.742126 334.377411,282.084778 
	C322.405090,288.617340 310.661987,295.582245 298.973724,302.617981 
	C292.924225,306.259430 287.071228,306.877167 280.816162,303.372314 
	C256.112610,289.530518 231.301971,275.875946 206.768311,261.740112 
	C203.876770,260.074066 200.886459,255.989807 200.630875,252.810394 
	C199.768112,242.077484 200.087891,231.247223 200.061111,220.453918 
	C200.059052,219.620270 200.878845,218.784607 201.489563,217.620148 
	C222.672379,229.176620 243.644547,240.618164 265.000824,252.269257 
	C265.000824,245.154617 265.000824,238.826981 265.000793,231.999542 
M294.673462,108.030563 
	C285.842285,113.014977 277.009033,117.995659 268.180511,122.984772 
	C257.688507,128.913925 247.139252,134.745636 236.742096,140.836823 
	C232.774628,143.161179 232.759109,146.043167 236.700043,148.237595 
	C249.057053,155.118378 261.501556,161.847977 274.047333,168.376419 
	C275.631866,169.200943 278.412170,169.203156 279.979980,168.360794 
	C300.650970,157.254807 321.217316,145.953506 341.777954,134.643112 
	C348.093811,131.168762 354.319855,127.530685 360.573730,123.944405 
	C363.660797,122.174141 364.244568,120.759666 360.470276,118.743469 
	C347.149170,111.627411 333.996277,104.196541 320.682068,97.067184 
	C319.426361,96.394791 317.212189,96.453659 315.909180,97.105270 
	C309.001373,100.559830 302.242584,104.312447 294.673462,108.030563 
z"/>
<path fill="#FEFEFE" opacity="1.000000" stroke="none" 
	d="
M184.000977,130.000427 
	C184.000977,141.289078 184.000977,152.077850 184.000977,163.092484 
	C182.842209,163.092484 182.094299,163.322571 181.625580,163.057983 
	C174.543839,159.060547 167.395706,155.165024 160.479813,150.894699 
	C155.532455,147.839859 153.120758,142.793777 153.132523,137.201752 
	C153.164322,122.075211 153.494980,106.942963 154.070541,91.826828 
	C154.323746,85.176865 157.836426,80.005730 163.708008,76.787048 
	C179.681824,68.030487 195.745529,59.438042 211.733200,50.706547 
	C231.768311,39.764603 251.716354,28.662258 271.802643,17.815561 
	C278.202545,14.359580 284.641876,9.482433 292.313629,11.218608 
	C298.331757,12.580556 304.126190,15.497446 309.632446,18.446995 
	C325.209290,26.791096 340.594604,35.493324 356.041290,44.079765 
	C376.801086,55.619633 397.495422,67.278908 418.339722,78.663841 
	C423.074951,81.250175 424.608612,85.648132 425.824036,90.052498 
	C426.896240,93.937943 426.947144,98.184013 426.955750,102.271873 
	C427.032867,138.923370 426.716644,175.578522 427.159912,212.224808 
	C427.308777,224.529526 423.422180,233.517151 412.346832,239.297424 
	C405.229584,243.011948 398.390869,247.256454 391.360077,251.141708 
	C387.576416,253.232544 385.955322,251.884460 385.966095,247.616379 
	C386.032013,221.460541 385.972168,195.304352 386.071533,169.148743 
	C386.077026,167.704025 386.705475,165.682999 387.761414,164.909088 
	C400.535492,155.546906 405.283325,142.176346 407.051056,127.226425 
	C407.240601,125.623619 407.794128,124.063576 407.979889,122.460640 
	C409.450500,109.771645 403.729614,101.594490 392.601349,95.761826 
	C365.408325,81.509163 338.502777,66.708351 311.462921,52.162727 
	C308.635406,50.641716 305.546173,49.574589 302.825165,47.896618 
	C299.595490,45.904953 296.946747,45.776035 293.444336,47.780571 
	C274.701630,58.507622 255.774033,68.911278 236.925049,79.453049 
	C220.702972,88.525658 204.550644,97.724998 188.244415,106.643341 
	C185.240280,108.286392 183.785538,110.027153 183.939346,113.509789 
	C184.174347,118.830574 184.000977,124.169388 184.000977,130.000427 
z"/>
<path fill="#FEFEFE" opacity="1.000000" stroke="none" 
	d="
M292.104034,356.814087 
	C293.379211,333.232117 305.662445,316.283051 328.331726,312.335175 
	C351.221741,308.348846 370.859100,322.823914 376.954987,344.558746 
	C381.434326,360.529724 377.237823,374.856415 365.827087,386.153503 
	C354.451599,397.415710 339.867157,400.407806 324.284821,396.641541 
	C309.200073,392.995575 300.092072,382.396149 294.172241,368.814789 
	C292.652252,365.327515 292.754272,361.133240 292.104034,356.814087 
M360.998566,357.317780 
	C360.659149,354.586609 360.574768,351.794373 359.938110,349.134338 
	C356.334259,334.076691 340.326111,324.918518 326.651428,330.159485 
	C314.188477,334.936035 306.219330,350.534302 312.170258,364.536987 
	C316.114899,373.818756 322.970154,379.725647 332.935455,380.872955 
	C343.499451,382.089233 352.172913,377.993317 357.617615,368.638519 
	C359.415131,365.550079 359.907654,361.702057 360.998566,357.317780 
z"/>
<path fill="#FFFFFF" opacity="1.000000" stroke="none" 
	d="
M106.857162,312.998566 
	C111.472961,315.005005 115.818161,316.745117 119.805916,319.092468 
	C123.219910,321.102081 124.609016,324.029388 121.077988,327.422546 
	C120.619843,327.862854 120.321220,328.469421 119.950172,329.000000 
	C115.554153,335.286133 115.074089,335.284790 108.120659,332.041046 
	C93.319542,325.136322 76.306030,328.888428 69.636108,346.928772 
	C64.656662,360.396881 72.172218,375.469360 85.289337,381.047058 
	C90.827354,383.401917 96.287903,383.295624 101.923553,381.982056 
	C107.174911,380.758087 109.022469,378.198303 108.992432,372.008270 
	C108.951820,363.636780 110.101288,363.735382 101.461327,364.061462 
	C97.868553,364.196991 96.696289,362.837646 96.953613,359.407166 
	C97.175125,356.454132 96.999550,353.471313 96.999550,350.252289 
	C106.354530,350.252289 115.432968,350.252289 124.999527,350.252289 
	C124.999527,361.178467 125.380615,372.086731 124.832718,382.948120 
	C124.573418,388.088440 119.541206,390.869293 115.503517,392.517303 
	C108.439445,395.400452 100.919991,397.980560 93.399086,398.712738 
	C85.198494,399.511078 77.207314,396.639954 70.129593,392.013641 
	C60.188721,385.515808 53.860893,376.241425 51.121639,364.932098 
	C47.772617,351.105286 51.764355,338.464783 60.212807,327.455414 
	C68.850906,316.198914 81.046738,311.444855 94.947868,311.152008 
	C98.761093,311.071686 102.602821,312.344055 106.857162,312.998566 
z"/>
<path fill="#FEFEFE" opacity="1.000000" stroke="none" 
	d="
M396.998749,369.003937 
	C397.376373,362.259735 396.770569,355.753876 398.342133,349.825165 
	C401.349640,338.479218 410.052307,332.086731 420.942047,329.148560 
	C433.043396,325.883545 444.457733,328.368530 453.874481,336.656372 
	C462.807861,344.518768 467.351929,361.281769 461.744263,375.128082 
	C456.332428,388.490753 446.251953,396.623688 431.743500,397.660706 
	C426.131195,398.061859 420.340027,395.961060 414.001221,394.894196 
	C414.001221,399.964600 413.981537,405.821320 414.009796,411.677826 
	C414.023254,414.467621 414.058563,416.251282 409.943024,415.239441 
	C406.042847,414.280548 401.721832,415.033325 396.998749,415.033325 
	C396.998749,399.661346 396.998749,384.582153 396.998749,369.003937 
M415.011169,373.134369 
	C418.832794,380.031097 425.708954,382.778137 433.196198,380.399323 
	C442.984619,377.289490 448.438049,367.620392 445.872650,356.967560 
	C444.055817,349.423248 439.004700,344.398621 431.272949,343.210632 
	C425.426117,342.312256 420.246735,344.789215 416.911346,349.730682 
	C412.155334,356.776764 411.954773,364.477509 415.011169,373.134369 
z"/>
<path fill="#FEFEFE" opacity="1.000000" stroke="none" 
	d="
M197.754974,343.511047 
	C199.322098,351.643097 200.711426,359.427582 202.311768,368.394470 
	C186.523941,368.394470 172.365814,368.394470 158.148254,368.394470 
	C158.954620,379.431732 170.843079,385.252045 179.576523,383.793457 
	C181.332077,383.500244 183.092743,383.168091 184.801422,382.680084 
	C187.373199,381.945557 190.795303,379.637787 192.248138,380.552460 
	C194.718048,382.107513 196.140457,385.544617 197.616119,388.391418 
	C198.795197,390.666107 197.784607,392.168701 195.328064,393.340698 
	C179.403549,400.937927 164.697403,400.871399 151.000031,388.904999 
	C144.658936,383.365204 140.843689,376.253906 140.913116,367.292786 
	C140.984558,358.068848 140.961075,349.189362 146.898972,341.135742 
	C155.756485,329.122223 178.229233,323.360016 192.381317,336.113556 
	C194.505753,338.028015 195.864304,340.792297 197.754974,343.511047 
M169.035507,344.015442 
	C161.879623,346.806396 158.181000,351.129730 158.216415,357.025848 
	C167.202194,356.737732 176.296494,357.962799 185.202591,354.825348 
	C182.287613,347.296936 177.920273,342.942596 169.035507,344.015442 
z"/>
<path fill="#FFFFFF" opacity="1.000000" stroke="none" 
	d="
M258.999481,359.260071 
	C258.062256,344.895050 251.035400,343.007568 239.904053,346.099274 
	C235.512009,347.319153 233.383881,351.027802 233.085724,355.260315 
	C232.470978,363.986755 232.213303,372.744751 232.063339,381.494141 
	C232.007812,384.734192 232.803116,387.979706 232.964645,391.234924 
	C233.149673,394.963257 231.272415,397.035034 227.444519,396.990509 
	C213.439240,396.827576 216.139023,398.754181 216.038101,386.407532 
	C215.888657,368.122345 215.999466,349.835022 215.999466,331.275360 
	C221.322037,331.275360 226.256561,331.275360 231.652161,331.275360 
	C231.843948,332.307922 232.085022,333.605927 232.261856,334.557983 
	C237.221893,332.984711 241.868591,331.168396 246.677338,330.046997 
	C264.196350,325.961334 275.992096,339.233246 275.154327,353.781372 
	C274.418274,366.563812 274.880157,379.424042 275.075348,392.245911 
	C275.132446,395.996613 273.917542,397.337677 270.203369,397.056763 
	C266.726898,396.793823 263.214905,397.000519 258.999481,397.000519 
	C258.999481,384.540375 258.999481,372.134583 258.999481,359.260071 
z"/>
<path fill="#FDFDFD" opacity="1.000000" stroke="none" 
	d="
M515.847290,345.230835 
	C510.628845,344.327972 505.781708,343.215668 500.922119,343.158356 
	C499.352295,343.139893 496.937836,345.667633 496.441620,347.455750 
	C496.098450,348.692200 498.016907,351.287140 499.559296,352.184814 
	C505.123077,355.422882 510.963898,358.183197 516.684937,361.153046 
	C527.612488,366.825623 530.856995,382.331726 522.434448,390.681732 
	C514.426025,398.621185 504.217072,400.966278 493.464417,398.477722 
	C488.108948,397.238281 483.151672,394.056976 478.194275,391.416168 
	C475.861725,390.173553 475.326599,388.081482 477.405457,385.728210 
	C479.659454,383.176697 481.662415,380.403412 483.947601,377.507935 
	C489.809052,384.147766 496.960327,385.538666 504.480164,384.807678 
	C506.622742,384.599426 509.037872,382.385376 510.318146,380.429932 
	C510.847076,379.622040 509.166412,376.383484 507.717010,375.443695 
	C502.812744,372.263885 497.461884,369.780823 492.479980,366.709839 
	C489.299194,364.749054 486.144714,362.537994 483.542694,359.885651 
	C476.349884,352.553650 476.751831,337.346710 488.142334,332.019043 
	C500.191833,326.383118 511.799622,328.104492 523.085693,334.127655 
	C526.902588,336.164673 524.691040,339.484314 523.816284,341.977692 
	C522.630371,345.357971 520.194275,347.477386 515.847290,345.230835 
z"/>
<path fill="#FCFCFC" opacity="1.000000" stroke="none" 
	d="
M485.601440,429.365936 
	C487.593170,429.284210 489.324890,429.176453 490.885559,428.603119 
	C496.465607,426.553375 500.870667,429.321533 500.988983,435.176697 
	C501.076355,439.501587 501.213196,443.845764 500.879944,448.146606 
	C500.779663,449.440918 499.176300,450.618774 498.261505,451.849976 
	C497.178192,450.530121 495.475586,449.344818 495.152893,447.859680 
	C494.635559,445.478455 495.035706,442.898682 495.041168,440.402802 
	C495.046234,438.089905 495.042236,435.776978 495.042236,433.490845 
	C487.419312,433.099640 487.007019,433.484589 487.006226,440.684662 
	C487.005859,444.316498 487.006165,447.948334 487.006165,451.489441 
	C482.495087,452.865631 480.794495,451.389191 480.974060,447.099060 
	C481.167175,442.485504 481.017670,437.857574 481.017670,433.277679 
	C474.015045,432.798615 474.012817,432.798615 474.006927,438.875031 
	C474.002899,443.018799 474.006165,447.162567 474.006165,451.770111 
	C472.058868,451.862549 470.337524,451.944244 467.997589,452.055328 
	C467.997589,444.814575 467.846313,437.871857 468.162170,430.950439 
	C468.209045,429.923004 471.184143,427.928986 471.573059,428.193420 
	C474.392090,430.109955 476.840973,428.615326 479.531769,428.164459 
	C481.337738,427.861847 483.345520,428.763519 485.601440,429.365936 
z"/>
<path fill="#FEFEFE" opacity="1.000000" stroke="none" 
	d="
M296.572174,444.107910 
	C288.954926,441.667755 286.684662,442.625641 282.841949,448.181396 
	C281.518036,450.095459 278.930664,451.135681 276.920471,452.575104 
	C276.490112,452.250610 276.059753,451.926117 275.629395,451.601654 
	C277.231995,446.760193 278.728668,441.880310 280.467194,437.088196 
	C282.175110,432.380707 283.983612,427.695923 286.065765,423.146637 
	C286.664398,421.838776 288.332733,420.253082 289.566193,420.204498 
	C290.992584,420.148254 293.276398,421.300598 293.813477,422.529114 
	C297.555725,431.089264 300.991699,439.785858 304.366119,448.500549 
	C304.714447,449.400055 304.015411,450.705139 303.802368,451.822021 
	C302.624237,451.466614 300.960876,451.476074 300.364655,450.683136 
	C298.936432,448.783508 298.009918,446.506561 296.572174,444.107910 
M293.047485,434.498444 
	C292.120392,431.941559 291.193268,429.384644 289.852844,425.687897 
	C288.624176,430.882141 287.725739,434.680206 286.838348,438.431702 
	C288.941437,438.256042 290.617798,438.428802 292.007263,437.877930 
	C292.789551,437.567780 293.098663,436.064087 293.047485,434.498444 
z"/>
<path fill="#FFFFFF" opacity="1.000000" stroke="none" 
	d="
M57.667068,444.165161 
	C59.112545,445.323212 60.158798,446.728699 61.444233,446.999725 
	C63.885899,447.514526 66.669838,447.982635 68.887985,447.226837 
	C69.812050,446.911957 70.348099,443.186157 69.771645,441.435791 
	C69.282402,439.950195 66.939606,439.075012 64.909081,437.547699 
	C66.389305,434.964233 69.418617,434.574585 72.224922,435.196747 
	C73.395569,435.456268 74.803307,437.825928 74.883835,439.302643 
	C75.376335,448.333862 74.662094,449.576965 69.178848,451.345856 
	C63.262566,453.254425 56.444954,450.735596 52.811665,445.298767 
	C47.593327,437.490082 49.280067,426.380219 57.365906,422.587799 
	C61.429874,420.681702 66.906960,421.485352 71.716194,421.702362 
	C72.804337,421.751465 73.772697,424.455475 74.511375,425.525024 
	C68.712143,426.255188 62.672455,425.279297 59.406796,427.840485 
	C54.699230,431.532471 53.652977,437.967285 57.667068,444.165161 
z"/>
<path fill="#FEFEFE" opacity="1.000000" stroke="none" 
	d="
M338.979980,450.729675 
	C336.264221,452.250244 334.033386,453.074707 334.013550,449.013062 
	C333.968384,439.759460 333.999268,430.505493 333.999268,421.127869 
	C338.711426,421.127869 343.062683,420.547913 347.188354,421.265228 
	C353.220642,422.314026 356.469452,427.360138 356.000183,433.443024 
	C355.670166,437.721222 351.009918,441.395050 345.053223,441.975922 
	C343.600983,442.117554 342.123169,441.997040 340.510651,441.997040 
	C340.084900,445.085785 339.711670,447.793365 338.979980,450.729675 
M349.472900,427.991699 
	C346.406281,427.003784 343.339630,426.015869 338.862061,424.573395 
	C339.179565,429.033447 338.894043,432.804596 340.061523,436.053619 
	C340.360352,436.885284 345.444550,436.670715 347.988129,435.861572 
	C351.628998,434.703308 350.147369,431.303375 349.472900,427.991699 
z"/>
<path fill="#F7F7F7" opacity="1.000000" stroke="none" 
	d="
M372.951233,440.307190 
	C376.081665,438.224091 379.030029,436.498627 382.749146,434.322083 
	C380.742279,431.334900 376.920319,433.071106 373.393982,432.760529 
	C373.393982,432.074066 373.103455,431.152588 373.439514,430.650513 
	C376.383484,426.252258 380.963013,427.940125 384.786011,428.312469 
	C386.477814,428.477264 389.001892,431.223328 389.250092,433.054779 
	C390.085388,439.218903 390.067780,445.498596 390.358215,451.364960 
	C385.971252,451.690155 382.682800,452.023773 379.386230,452.158447 
	C373.546722,452.397095 371.679443,450.435303 372.065979,444.541138 
	C372.151337,443.239288 372.527100,441.956421 372.951233,440.307190 
M382.423615,446.028900 
	C382.916138,444.233215 383.408661,442.437531 383.901184,440.641815 
	C383.161346,440.275330 382.421509,439.908844 381.681702,439.542328 
	C380.136475,441.373657 378.591248,443.204987 377.046021,445.036316 
	C378.656921,445.565613 380.267853,446.094940 382.423615,446.028900 
z"/>
<path fill="#FEFEFE" opacity="1.000000" stroke="none" 
	d="
M427.414917,446.233948 
	C427.111847,442.399200 426.264587,438.682251 427.134155,435.423462 
	C428.645172,429.760803 433.239441,427.106598 437.620331,428.256012 
	C444.658813,430.102692 448.000641,434.838684 447.160431,441.267914 
	C446.470856,446.544464 444.696259,450.863953 438.824493,451.774200 
	C434.064026,452.512177 430.112030,450.992859 427.414917,446.233948 
M433.507385,435.011261 
	C430.856079,439.425964 431.358459,443.469666 435.369934,446.681274 
	C436.248627,447.384735 439.261688,447.149475 439.325500,446.880188 
	C440.090637,443.653961 441.233551,440.229980 440.771881,437.078308 
	C440.278107,433.707764 437.099731,433.397095 433.507385,435.011261 
z"/>
<path fill="#FEFEFE" opacity="1.000000" stroke="none" 
	d="
M171.609528,440.882935 
	C175.067596,438.625916 178.224396,436.621429 181.970963,434.242432 
	C180.487167,428.331451 175.141373,434.777954 171.693069,432.214478 
	C175.393387,424.268158 181.667786,429.717987 187.064240,428.966492 
	C187.726395,436.052124 188.401352,442.750610 188.912155,449.461609 
	C188.970291,450.225677 188.053207,451.768982 187.680450,451.740601 
	C185.919800,451.606598 184.191208,451.051453 181.941757,450.527863 
	C178.915207,452.449768 174.959579,453.322266 171.784897,450.036255 
	C169.493210,447.664185 168.726135,444.247864 171.609528,440.882935 
M174.051178,446.320465 
	C177.334457,447.992615 179.982407,446.705627 182.135284,444.286774 
	C183.905823,442.297577 183.186264,440.643188 180.682037,440.047180 
	C177.637589,439.322571 174.328110,442.106964 174.051178,446.320465 
z"/>
<path fill="#FEFEFE" opacity="1.000000" stroke="none" 
	d="
M98.298393,435.729187 
	C99.022049,438.513580 98.342613,439.885132 95.491722,440.056244 
	C91.797707,440.277985 88.127701,440.899811 84.553596,441.336426 
	C85.651237,450.168304 92.932762,445.897034 98.257057,447.439392 
	C97.741562,448.592743 97.566246,450.127563 96.764091,450.601562 
	C89.372536,454.969360 80.007431,449.553680 79.999023,441.020386 
	C79.989113,430.963318 81.945778,428.833649 90.733376,428.972534 
	C95.119919,429.041870 97.018875,431.671692 98.298393,435.729187 
z"/>
<path fill="#FFFFFF" opacity="1.000000" stroke="none" 
	d="
M135.398010,442.147705 
	C135.562881,445.983856 137.471069,447.493500 141.117691,447.047455 
	C143.236435,446.788330 145.412781,447.000305 148.144379,447.000305 
	C147.761703,448.337555 147.793884,449.659271 147.156830,450.218231 
	C143.049835,453.821869 132.542435,450.931366 131.101303,445.648071 
	C130.259933,442.563538 129.837326,439.179047 130.128418,436.012421 
	C130.636215,430.488464 135.297699,427.244690 141.044586,428.040009 
	C145.104309,428.601868 150.038452,431.668488 148.860352,437.572968 
	C148.596649,438.894562 146.736557,440.538635 145.339706,440.862579 
	C142.220535,441.585968 138.929993,441.570496 135.398010,442.147705 
M137.358612,432.966248 
	C136.914658,433.639526 135.967834,434.742493 136.113022,434.912415 
	C136.775467,435.687805 137.771652,436.739502 138.597916,436.697968 
	C140.385101,436.608093 142.141693,435.909729 143.910797,435.460266 
	C144.039108,434.997009 144.167435,434.533752 144.295746,434.070496 
	C142.199921,433.543823 140.104095,433.017151 137.358612,432.966248 
z"/>
<path fill="#FAFAFA" opacity="1.000000" stroke="none" 
	d="
M412.990112,441.140076 
	C413.031677,439.180206 413.170227,437.680756 413.090576,436.192932 
	C412.987793,434.273163 412.710388,432.362732 411.738251,430.674164 
	C412.481537,428.261322 413.191498,425.837585 413.975067,423.437866 
	C415.618378,418.405243 420.099945,416.294067 424.856781,418.585938 
	C426.040833,419.156342 426.692993,420.830658 427.509094,421.892792 
	C423.929993,423.111298 421.267609,424.017670 418.148438,425.079590 
	C420.981750,427.177246 422.616730,428.387726 424.251740,429.598206 
	C422.840942,431.062866 421.430176,432.527527 419.812378,434.207092 
	C419.812378,438.701752 419.937836,444.041962 419.689392,449.364685 
	C419.647766,450.255798 417.888916,451.849274 417.091705,451.751221 
	C415.661865,451.575348 413.423767,450.573273 413.189697,449.539307 
	C412.617004,447.009338 412.994812,444.264221 412.990112,441.140076 
z"/>
<path fill="#FFFFFF" opacity="1.000000" stroke="none" 
	d="
M115.988480,433.000000 
	C109.001389,433.008484 109.001083,433.008484 108.999924,439.513184 
	C108.999283,443.154053 108.999817,446.794922 108.999817,450.818359 
	C107.385490,450.899109 105.980522,450.969421 104.710159,451.032959 
	C104.710159,443.275452 104.710159,435.693512 104.710159,429.447083 
	C108.487305,429.005493 111.443947,429.033417 114.172180,428.257812 
	C118.861954,426.924591 123.884209,430.186066 123.984207,435.103058 
	C124.062027,438.929749 123.862679,442.765594 124.040352,446.585571 
	C124.200928,450.037994 123.034492,451.672577 119.000000,450.718933 
	C119.000000,445.877411 119.140572,440.906036 118.884666,435.955109 
	C118.831734,434.931030 117.304291,433.983185 115.988480,433.000000 
z"/>
<path fill="#FEFEFE" opacity="1.000000" stroke="none" 
	d="
M246.796387,429.669952 
	C256.618256,425.374908 261.752838,429.649200 260.727905,440.239532 
	C258.682953,440.497559 256.769165,440.844391 254.841888,440.954041 
	C252.697632,441.076050 250.541061,440.982025 248.380661,440.982025 
	C248.624619,446.816223 250.547272,448.146545 256.195587,447.092438 
	C257.499146,446.849182 258.987091,447.593750 260.390167,447.883728 
	C259.152649,448.922943 258.027313,450.673920 256.660004,450.889374 
	C245.104599,452.709930 240.405396,442.283478 243.249695,433.278259 
	C243.666824,431.957550 245.389664,431.049255 246.796387,429.669952 
M255.900833,435.981049 
	C256.166046,435.392670 256.824860,434.518524 256.636688,434.259369 
	C254.286438,431.022797 249.243530,431.796448 247.035065,435.997101 
	C249.823807,435.997101 252.426392,435.997101 255.900833,435.981049 
z"/>
<path fill="#FFFFFF" opacity="1.000000" stroke="none" 
	d="
M201.008575,443.449524 
	C202.007309,445.185791 203.739746,446.453796 203.785995,447.780609 
	C203.833847,449.153259 202.132462,451.830811 201.392303,451.764038 
	C198.700684,451.521240 195.037949,451.797821 195.009796,447.402405 
	C194.980133,442.772858 195.003159,438.142975 195.003159,435.130524 
	C192.832108,432.480469 191.546661,430.911407 189.747452,428.715240 
	C192.526413,428.076599 194.066147,427.722748 194.716461,427.573303 
	C196.006744,424.797272 196.843201,422.580444 198.089279,420.624573 
	C198.382706,420.164032 200.125351,420.379547 201.064697,420.693176 
	C201.469269,420.828278 201.919388,422.204102 201.679764,422.677856 
	C199.342026,427.299530 202.338226,428.032410 206.118973,428.266846 
	C206.321243,428.698395 206.523529,429.129944 206.725800,429.561523 
	C205.018402,431.086945 203.311005,432.612335 201.001587,434.675629 
	C201.001587,436.725067 201.001587,439.866089 201.008575,443.449524 
z"/>
<path fill="#FEFEFE" opacity="1.000000" stroke="none" 
	d="
M233.820160,448.475311 
	C231.783569,451.116272 229.183289,453.589386 227.271622,449.743805 
	C223.732483,442.624420 221.087234,435.060669 218.728409,427.386261 
	C227.361954,429.032471 226.023560,437.734283 230.395294,442.373566 
	C231.464371,439.002625 232.623978,435.864197 233.438217,432.638580 
	C234.319687,429.146698 236.175751,427.905945 239.761337,429.419098 
	C237.853088,435.580719 235.911209,441.850922 233.820160,448.475311 
z"/>
<path fill="#FDFDFD" opacity="1.000000" stroke="none" 
	d="
M403.082764,426.910583 
	C403.345612,427.576721 403.479248,427.950714 403.741425,428.102112 
	C405.138123,428.908600 406.567047,429.659363 407.984802,430.429413 
	C406.483734,431.632477 404.982666,432.835571 402.364166,434.934265 
	C403.270966,439.570312 404.369812,445.188019 405.646240,451.713715 
	C404.237335,451.713715 401.396729,452.475189 399.495667,451.466278 
	C398.045288,450.696564 397.293152,447.728760 397.101837,445.658264 
	C396.737579,441.716034 396.996216,437.716248 396.996216,433.468719 
	C394.988708,433.108612 393.178741,432.783966 390.152588,432.241180 
	C393.349182,429.209991 395.571533,426.681488 398.220032,424.731720 
	C400.149200,423.311462 402.387634,423.312347 403.082764,426.910583 
z"/>
<path fill="#FCFCFC" opacity="1.000000" stroke="none" 
	d="
M361.273834,420.470520 
	C362.830719,420.073669 364.145111,420.073669 366.231934,420.073669 
	C366.231934,430.386505 366.231934,440.577667 366.231934,451.082031 
	C365.095703,451.082031 363.347656,451.082031 361.031342,451.082031 
	C361.031342,441.034698 361.031342,430.951019 361.273834,420.470520 
z"/>
<path fill="#FDFDFD" opacity="1.000000" stroke="none" 
	d="
M464.548950,429.208099 
	C467.922272,433.404968 462.957092,432.834412 462.329681,432.777893 
	C457.049927,432.302338 457.049408,435.630951 456.900879,439.325287 
	C456.737518,443.388641 456.180634,447.436157 455.771881,451.735718 
	C454.255554,451.735718 452.849152,451.735718 451.217346,451.735718 
	C451.217346,443.990112 451.217346,436.228821 451.217346,428.173889 
	C455.559601,428.459015 459.871521,428.742126 464.548950,429.208099 
z"/>
<path fill="#FEFEFE" opacity="1.000000" stroke="none" 
	d="
M316.274200,421.666138 
	C316.438995,431.844788 316.438995,441.614655 316.438995,451.599487 
	C314.003632,451.599487 312.203156,451.599487 310.659912,451.599487 
	C310.659912,441.319061 310.659912,431.439148 310.659912,420.839661 
	C312.827545,421.005829 314.468475,421.131592 316.274200,421.666138 
z"/>
<path fill="#FFFFFF" opacity="1.000000" stroke="none" 
	d="
M154.000168,433.358704 
	C154.087311,431.504700 154.174454,430.104340 154.197739,429.730347 
	C157.964249,429.067719 160.892105,428.291229 163.850357,428.149597 
	C165.198151,428.085052 166.605972,429.274872 168.436508,430.775696 
	C153.580200,432.515991 160.877319,443.661682 158.649063,450.659668 
	C155.298630,452.130371 154.218704,450.001801 154.089783,447.242432 
	C153.881012,442.774109 154.012405,438.289856 154.000168,433.358704 
z"/>
<path fill="#FFFFFF" opacity="1.000000" stroke="none" 
	d="
M215.999939,446.794312 
	C215.999924,448.748962 215.999924,450.228729 215.999924,452.009186 
	C213.759399,451.638428 211.883682,451.328033 210.054031,451.025269 
	C210.054031,443.577698 210.054031,436.367310 210.054031,428.702393 
	C212.266235,428.858215 213.976730,428.978668 215.999939,429.121185 
	C215.999939,435.070343 215.999939,440.694916 215.999939,446.794312 
z"/>
<path fill="#000000" opacity="1.000000" stroke="none" 
	d="
M295.052826,107.996170 
	C302.242584,104.312447 309.001373,100.559830 315.909180,97.105270 
	C317.212189,96.453659 319.426361,96.394791 320.682068,97.067184 
	C333.996277,104.196541 347.149170,111.627411 360.470276,118.743469 
	C364.244568,120.759666 363.660797,122.174141 360.573730,123.944405 
	C354.319855,127.530685 348.093811,131.168762 341.777954,134.643112 
	C321.217316,145.953506 300.650970,157.254807 279.979980,168.360794 
	C278.412170,169.203156 275.631866,169.200943 274.047333,168.376419 
	C261.501556,161.847977 249.057053,155.118378 236.700043,148.237595 
	C232.759109,146.043167 232.774628,143.161179 236.742096,140.836823 
	C247.139252,134.745636 257.688507,128.913925 268.180511,122.984772 
	C277.009033,117.995659 285.842285,113.014977 295.052826,107.996170 
z"/>
<path fill="#000000" opacity="1.000000" stroke="none" 
	d="
M360.997711,357.759583 
	C359.907654,361.702057 359.415131,365.550079 357.617615,368.638519 
	C352.172913,377.993317 343.499451,382.089233 332.935455,380.872955 
	C322.970154,379.725647 316.114899,373.818756 312.170258,364.536987 
	C306.219330,350.534302 314.188477,334.936035 326.651428,330.159485 
	C340.326111,324.918518 356.334259,334.076691 359.938110,349.134338 
	C360.574768,351.794373 360.659149,354.586609 360.997711,357.759583 
z"/>
<path fill="#000000" opacity="1.000000" stroke="none" 
	d="
M414.935608,372.738159 
	C411.954773,364.477509 412.155334,356.776764 416.911346,349.730682 
	C420.246735,344.789215 425.426117,342.312256 431.272949,343.210632 
	C439.004700,344.398621 444.055817,349.423248 445.872650,356.967560 
	C448.438049,367.620392 442.984619,377.289490 433.196198,380.399323 
	C425.708954,382.778137 418.832794,380.031097 414.935608,372.738159 
z"/>
<path fill="#000000" opacity="1.000000" stroke="none" 
	d="
M169.459900,344.008972 
	C177.920273,342.942596 182.287613,347.296936 185.202591,354.825348 
	C176.296494,357.962799 167.202194,356.737732 158.216415,357.025848 
	C158.181000,351.129730 161.879623,346.806396 169.459900,344.008972 
z"/>
<path fill="#000000" opacity="1.000000" stroke="none" 
	d="
M293.334198,434.798279 
	C293.098663,436.064087 292.789551,437.567780 292.007263,437.877930 
	C290.617798,438.428802 288.941437,438.256042 286.838348,438.431702 
	C287.725739,434.680206 288.624176,430.882141 289.852844,425.687897 
	C291.193268,429.384644 292.120392,431.941559 293.334198,434.798279 
z"/>
<path fill="#000000" opacity="1.000000" stroke="none" 
	d="
M349.714966,428.309418 
	C350.147369,431.303375 351.628998,434.703308 347.988129,435.861572 
	C345.444550,436.670715 340.360352,436.885284 340.061523,436.053619 
	C338.894043,432.804596 339.179565,429.033447 338.862061,424.573395 
	C343.339630,426.015869 346.406281,427.003784 349.714966,428.309418 
z"/>
<path fill="#000000" opacity="1.000000" stroke="none" 
	d="
M382.151184,446.326569 
	C380.267853,446.094940 378.656921,445.565613 377.046021,445.036316 
	C378.591248,443.204987 380.136475,441.373657 381.681702,439.542328 
	C382.421509,439.908844 383.161346,440.275330 383.901184,440.641815 
	C383.408661,442.437531 382.916138,444.233215 382.151184,446.326569 
z"/>
<path fill="#000000" opacity="1.000000" stroke="none" 
	d="
M433.791809,434.710602 
	C437.099731,433.397095 440.278107,433.707764 440.771881,437.078308 
	C441.233551,440.229980 440.090637,443.653961 439.325500,446.880188 
	C439.261688,447.149475 436.248627,447.384735 435.369934,446.681274 
	C431.358459,443.469666 430.856079,439.425964 433.791809,434.710602 
z"/>
<path fill="#000000" opacity="1.000000" stroke="none" 
	d="
M174.028229,445.894196 
	C174.328110,442.106964 177.637589,439.322571 180.682037,440.047180 
	C183.186264,440.643188 183.905823,442.297577 182.135284,444.286774 
	C179.982407,446.705627 177.334457,447.992615 174.028229,445.894196 
z"/>
<path fill="#000000" opacity="1.000000" stroke="none" 
	d="
M137.683441,432.728394 
	C140.104095,433.017151 142.199921,433.543823 144.295746,434.070496 
	C144.167435,434.533752 144.039108,434.997009 143.910797,435.460266 
	C142.141693,435.909729 140.385101,436.608093 138.597916,436.697968 
	C137.771652,436.739502 136.775467,435.687805 136.113022,434.912415 
	C135.967834,434.742493 136.914658,433.639526 137.683441,432.728394 
z"/>
<path fill="#000000" opacity="1.000000" stroke="none" 
	d="
M255.464905,435.989075 
	C252.426392,435.997101 249.823807,435.997101 247.035065,435.997101 
	C249.243530,431.796448 254.286438,431.022797 256.636688,434.259369 
	C256.824860,434.518524 256.166046,435.392670 255.464905,435.989075 
z"/>
</svg>